<svg id="레이어_1" data-name="레이어 1" xmlns="http://www.w3.org/2000/svg" viewBox="0 0 175.5 260.25"><defs><style>.cls-1{fill:#393939;}.cls-2{fill:#fefefe;}.cls-3{fill:#1166ae;}.cls-4{fill:#fdfdfd;}.cls-5{fill:#fcfcfc;}.cls-6{fill:#fafafa;}.cls-7{fill:#f9f9f9;}.cls-8{fill:#fbfbfb;}.cls-9{fill:#f8f8f8;}.cls-10{fill:#f6f6f6;}.cls-11{fill:#f7f7f7;}.cls-12{fill:#6c7278;}.cls-13{fill:#72777b;}.cls-14{fill:#6c7175;}.cls-15{fill:#687077;}.cls-16{fill:#697177;}.cls-17{fill:#8b8886;}.cls-18{fill:#707172;}.cls-19{fill:#91b3d6;}.cls-20{fill:#98b7d8;}.cls-21{fill:#90b3d6;}.cls-22{fill:#95b6d8;}.cls-23{fill:#a4bedc;}.cls-24{fill:#a8c1de;}.cls-25{fill:#a2bedc;}.cls-26{fill:#8eb0d5;}.cls-27{fill:#8eb1d6;}.cls-28{fill:#c2d0e6;}.cls-29{fill:#9ab8d9;}.cls-30{fill:#9cbbdb;}.cls-31{fill:#749fcc;}.cls-32{fill:#9fbcdb;}.cls-33{fill:#94b5d8;}.cls-34{fill:#aac2de;}.cls-35{fill:#96b5d8;}.cls-36{fill:#87add3;}.cls-37{fill:#aec6e0;}.cls-38{fill:#99b8d9;}.cls-39{fill:#9cbada;}.cls-40{fill:#a6c0dd;}.cls-41{fill:#4b88c0;}.cls-42{fill:#c4d5e8;}.cls-43{fill:#88add4;}.cls-44{fill:#97b7d9;}.cls-45{fill:#92b2d6;}.cls-46{fill:#97b7d8;}.cls-47{fill:#b7cbe3;}.cls-48{fill:#a1bddc;}.cls-49{fill:#0b62ac;}.cls-50{fill:#9dbbdb;}.cls-51{fill:#afc6e1;}.cls-52{fill:#acc5e0;}.cls-53{fill:#aec5e0;}.cls-54{fill:#3b3b3b;}.cls-55{fill:#3c3c3c;}.cls-56{fill:#3a3a3a;}.cls-57{fill:#3e3e3e;}.cls-58{fill:#1367ae;}.cls-59{fill:#1367af;}.cls-60{fill:#f28130;}.cls-61{fill:#4583bd;}.cls-62{fill:#518ac1;}.cls-63{fill:#3376b7;}.cls-64{fill:#3c7ab9;}.cls-65{fill:#6f9ccb;}.cls-66{fill:#085fab;}.cls-67{fill:#196ab1;}.cls-68{fill:#fdfefe;}</style></defs><path class="cls-1" d="M175.43,1q0,128.09.07,256.15c0,2.56-.5,3.06-3.05,3.06Q86.7,260.12.94,260.18c-.7-1.29-.36-2.69-.36-4q0-125.44,0-250.88C.57.13,0,.68,5.14.68q83.13,0,166.26,0C172.74.69,174.14.35,175.43,1Z"/><path class="cls-2" d="M175.43,1Q90.25,1,5.06,1C1.66,1,.85,1.81.86,5.18q.15,127.5.08,255c-1.56-.83-.7-2.27-.7-3.36Q.15,171.5.19,86.18c0-27.76,0-55.51-.06-83.27C.12.68.58.23,2.8.24q85,.1,170,.14C173.58.38,175-.82,175.43,1Z"/><path class="cls-3" d="M59.68,161.53l-5-5.86c-9.93-13.26-10.81-30.94-2.26-45.7l3.08-4.18c1.84-3.14,4.61-5.39,7.36-7.65l0,0c2.7-1.82,5.22-4,8.49-4.78,4,3.19,4.44,8.13,1.15,12.07a49.28,49.28,0,0,1-4.32,4.11c-16.3,15.2-10.61,40.51,9.14,48.79a20.74,20.74,0,0,1,7,4.83c1.94,2,3.94,2.24,6.17.27A30.05,30.05,0,0,1,99.21,158c16.24-6.52,23.69-26.13,13.45-43-4.78-7.9-12.59-12.14-22-13a13.08,13.08,0,0,0-4.46,0c-6.45,1.76-8.8-3.52-12.2-7a2.26,2.26,0,0,1-.38-2.47c3.11-2.19,6.86-2.17,10.37-3,2.69,0,5.37,0,8,0,5.47,1,10.93,1.92,15.52,5.4a21,21,0,0,1,6.46,4,16.51,16.51,0,0,1,6.07,6l2.34,2.73c1.72,2.9,3.82,5.61,4.35,9.08,3.4,9.46,3.76,18.92,0,28.39-.85,4.31-3.39,7.73-5.9,11.17l0,0c-3.13,3.64-6.21,7.32-10.47,9.73l0,0c-12.93,8-26.37,9-40.22,2.72A44,44,0,0,1,59.68,161.53Z"/><path class="cls-4" d="M29.27,209c0-4.1.08-8.2,0-12.29-.05-1.81.53-2.44,2.31-2.29a44.41,44.41,0,0,0,4.47,0c5.18-.06,10.09.83,12.81,5.82a17.6,17.6,0,0,1,0,17.47c-2.35,4.4-6.61,5.7-11.31,5.83-8.2.23-8.2.23-8.2-7.86Z"/><path class="cls-5" d="M86.64,223.3c-2.66.67-4,.34-4.78-2.31-1.9-6.52-4.3-7.68-11.18-6.4-1.28.24-1.57,1-1.87,1.94-.46,1.42-.87,2.85-1.33,4.27-1,2.94-1,2.94-4.58,2.42,3-8.83,6-17.63,9-26.45.52-1.55,1.15-2.42,3.06-2.4s2.25,1,2.71,2.38C80.61,205.56,83.61,214.37,86.64,223.3Z"/><path class="cls-6" d="M110.83,35.56c0-2.61,0-5.22,0-7.83,0-1-.11-2,1.43-2.05s1.25,1.2,1.26,2.08c0,4.35.13,8.71,0,13.05-.08,2.2.47,2.79,2.81,3,4.19.41,6.27-.89,7.12-5.15.75-3.73,2.35-7.3,3.56-10.94.35-1.09.6-2.05,2.13-2.09s1.79,1.09,2.12,2.09c1.76,5.16,3.5,10.33,5.14,15.52.24.76,1.26,1.9,0,2.47-1.48.7-2.41-.36-2.53-1.75-.33-3.75-2.51-4.31-5.8-4.2-2.24.09-3.11.91-3.43,2.86-.4,2.41-1.51,3.66-4.24,3.28-3-.42-7,1.26-9-.63s-.4-5.91-.62-9C110.82,36.06,110.83,35.81,110.83,35.56Z"/><path class="cls-5" d="M96.72,194.8c2.79-.91,4.17-.15,5.13,2.35,1.51,3.92,3.44,7.66,5.38,11.88,1.92-4.17,3.81-7.93,5.38-11.81,1-2.33,2.18-3.49,5-2.4-1.55,3.19-2.87,6.51-4.68,9.54A25.76,25.76,0,0,0,109,221c.15,1.28.43,2.69-1.85,2.68s-2-1.46-1.82-2.7c1.19-7.25-2.08-13.23-5.25-19.27C99,199.5,97.94,197.26,96.72,194.8Z"/><path class="cls-7" d="M34.26,53.39c-1.18,5-2.11,9-3.06,13-.26,1.11-.55,2-2.13,2s-1.4-1.16-1.59-2c-1.05-4.85-2.05-9.7-3-14.56-.15-.75-.87-1.75.52-2.07s1.71.58,1.91,1.66a104.78,104.78,0,0,0,2.88,12.75c.91-3.87,1.74-7.76,2.8-11.59.28-1-.12-2.77,1.74-2.85s1.54,1.62,1.82,2.69c1,3.93,2,7.88,3.22,12.79,1-5.1,1.78-9.25,2.58-13.4.18-.92,0-2.2,1.48-2.07,1.85.15.85,1.52.71,2.25-.9,4.88-2,9.73-2.88,14.6-.21,1.12-.55,1.8-1.84,1.81s-1.63-.71-1.88-1.8C36.55,62.43,35.51,58.39,34.26,53.39Z"/><path class="cls-5" d="M141.13,208.14c0,2.36.07,4.73,0,7.09-.11,3.14-.56,6.41,4.41,5.4,1-.22,1.5.43,1.49,1.55s-.69,1.41-1.66,1.41H132.68c-1,0-1.66-.16-1.71-1.39-.06-1.43.77-1.8,1.86-1.58,4.53.94,5-1.49,4.73-5.14a121.88,121.88,0,0,1,0-12.68c.08-2.28-.35-3.53-3-3.16-.76.11-2.13.65-2.26-1-.11-1.38.95-1.49,1.9-1.82,6.93-2.42,6.93-2.43,6.93,5Z"/><path class="cls-7" d="M76.53,35.47c0-1.86-.06-3.72,0-5.58.16-4.67-1.46-4.24,6.32-4.19,4.37,0,6.87,2.11,6.14,5.52-.57,2.65-1.22,4.52.93,7.12S89.49,45,85.58,45.6a58.87,58.87,0,0,1-7.41.26c-1.69.07-1.65-1-1.65-2.21C76.54,40.92,76.53,38.19,76.53,35.47Z"/><path class="cls-7" d="M152,45.47c-2,.94-2.95.05-3.72-1.48-.95-1.87-2.07-3.65-3.07-5.5-.71-1.29-1.9-.93-3-.9-1.67,0-1,1.4-1.07,2.24-.1,1.48,0,3,0,4.46,0,.71.1,1.53-1,1.56s-1.67-.25-1.67-1.41c0-5.83,0-11.65,0-17.48,0-.69.33-1.26,1.06-1.23,3.06.12,6.23-.7,9.16.67,3.52,1.64,4.29,6.9,1,9.32-2.27,1.69-1.94,2.79-.64,4.65A56.54,56.54,0,0,1,152,45.47Z"/><path class="cls-6" d="M25.54,35.51c.05-5.92,3.35-9.8,8.36-9.82s8.62,4.21,8.51,10.12c-.11,6.1-3.58,10.14-8.63,10S25.48,41.67,25.54,35.51Z"/><path class="cls-6" d="M59.2,45.48q3-9,5.92-17.94c.38-1.15.82-1.93,2.27-1.9s1.57,1,1.87,1.89c1.85,5.51,3.69,11,5.46,16.55.15.48,1.08,1.42-.28,1.69-.69.14-1.51.36-2-.52a12.63,12.63,0,0,1-.55-1.37c-1.38-3.74-3.55-4.91-7.3-4-1.91.47-1.59,2.26-2.1,3.51C61.65,45.58,61.72,45.61,59.2,45.48Z"/><path class="cls-6" d="M106,33.24c0,2.1.16,4.23,0,6.32-.38,4.06-2.66,6.2-6.42,6.29s-6.26-1.79-7-5.71c-.79-4.31-.23-8.67-.36-13,0-1.14.6-1.47,1.64-1.46s1,.83,1,1.55c0,3.1,0,6.2,0,9.3a20.17,20.17,0,0,0,.48,4,3.71,3.71,0,0,0,4,3.12,3.86,3.86,0,0,0,4-3.24c.93-3.68.11-7.43.53-11.11.13-1.19-1.33-3.52,1.14-3.49,2,0,.82,2.15,1,3.31a27.87,27.87,0,0,1,0,4.09Z"/><path class="cls-8" d="M75.05,67.94c-1.76.73-2.65.12-3.22-1.21a4.54,4.54,0,0,0-.73-1.29c-1.49-1.7-1.3-5.67-4.66-4.72-2.55.73-.63,3.69-1.14,5.58-.21.76.25,1.82-1.1,1.93-1.61.14-1.37-1-1.37-2q0-7.44,0-14.87c0-.61-.1-1.6.5-1.63,3.06-.13,6.22-.83,9.12.67,2.18,1.12,2.51,3.23,2.25,5.45-.07.6-.15,1.46-.55,1.72-4.77,3.11-1.24,6,.22,8.87C74.59,66.9,74.78,67.35,75.05,67.94Z"/><path class="cls-7" d="M138.15,59c0,5.64-3.2,9.29-8,9.23s-7.75-3.82-7.7-9.49,3.11-9.25,8-9.19S138.19,53.29,138.15,59Z"/><path class="cls-7" d="M60.6,58.87c0,5.65-3.08,9.38-7.81,9.39s-7.86-3.69-7.87-9.33,3-9.34,7.81-9.35S60.58,53.14,60.6,58.87Z"/><path class="cls-8" d="M83.16,59.11a6.93,6.93,0,0,0-3,7c.11.88.37,2.12-1.24,2.11s-1.15-1.33-1.16-2.17c-.05-4.84,0-9.67,0-14.5,0-.78-.35-1.84,1-2,1.57-.14,1.42,1,1.42,2,0,2.06,0,4.11,0,6.53,3.92-2.47,4.88-7.55,9.54-8.72,0,.56.16.86.07.94-5.39,4.44-4.76,9.14-.7,14.08a35.26,35.26,0,0,1,2.54,4.44C86.06,67.12,86.26,61.88,83.16,59.11Z"/><path class="cls-4" d="M119.5,59.23c0,2.49,0,5,0,7.46,0,.73.06,1.51-1,1.55s-1.16-.65-1.17-1.44a13.27,13.27,0,0,1,0-2.6c.7-3.73-1-4.37-4.41-4.4-3.62,0-5,1-4.37,4.53a13.83,13.83,0,0,1,0,2.23c0,1-.08,1.76-1.36,1.68-1.07-.06-1.07-.8-1.08-1.55V51c0-.81.13-1.46,1.19-1.45s1.25.58,1.25,1.42a12.76,12.76,0,0,1,0,2.23c-.67,3.74.77,4.71,4.54,4.73s4.82-1.16,4.23-4.58a6.81,6.81,0,0,1,0-1.86c.06-.78-.35-1.85,1-1.92s1.16,1,1.17,1.8C119.52,54,119.5,56.62,119.5,59.23Z"/><path class="cls-9" d="M18.45,43.15c1.59-5.57,2.88-10.22,4.27-14.84.35-1.15.3-3.21,2.33-2.52,1.75.6.38,2,.11,3-1.45,5-3.09,9.93-4.59,14.9-.38,1.25-.61,2.29-2.34,2.26s-1.71-1.22-2-2.19c-1.65-5.19-3.28-10.39-4.81-15.62-.2-.69-1.49-1.8.17-2.34,1.37-.45,1.9.4,2.26,1.68C15.23,32.43,16.75,37.39,18.45,43.15Z"/><path class="cls-10" d="M46.9,35.88c.05,6.54,3.81,9.16,9.48,6.55.75-.34,1.3-.74,1.85,0s0,1.32-.62,1.83c-3,2.73-8.92,1.85-11.57-1.75-3.76-5.13-2-13.84,3.37-16.13a7.67,7.67,0,0,1,7.76.61c.66.44,1.25.86.6,1.74-.44.61-.91.48-1.58.28C49.91,27.17,46.86,29.44,46.9,35.88Z"/><path class="cls-9" d="M97.24,68.28a10.25,10.25,0,0,1-2.26-.5c-1.28-.53-3.46-1.06-2.77-2.67.91-2.12,2.15.24,3.22.57a9.25,9.25,0,0,0,3.29.38,2.85,2.85,0,0,0,2.75-2.12c.44-1.43-.39-2.43-1.53-3.07-1.51-.84-3.13-1.47-4.66-2.28a4.53,4.53,0,0,1-2.73-4.83c.29-2.3,1.89-3.49,3.89-4a6.59,6.59,0,0,1,6.26,1.45.86.86,0,0,1,.13,1.3c-.27.31-.62.78-1.24.38a6.08,6.08,0,0,0-2-1c-1.76-.37-3.66-.5-4.46,1.54s.9,2.83,2.33,3.58c.88.46,1.81.82,2.71,1.22,2.61,1.16,4.47,2.89,3.63,6C103,67.25,100.76,68.29,97.24,68.28Z"/><path class="cls-6" d="M140.37,58.91c0-1.36-.36-2.87.09-4.06.68-1.76-2.31-5.08,2.17-5.28,6.64-.31,9.28,1,9.67,4.84s-1.53,6.63-5.65,6.66c-3.52,0-4.17,1.39-3.88,4.38.1,1,.87,2.82-1.29,2.75-1.83-.06-1-1.66-1.07-2.59C140.29,63.38,140.37,61.15,140.37,58.91Z"/><path class="cls-11" d="M152.72,25.32c5,1.57,4.06,7,6.85,9.59,3-2.28,1.8-7.95,7.49-9.72-1.18,2.45-1.89,4-2.65,5.5-2,4.1-4.21,8.14-3.45,13,.14.91.26,2.08-1.27,2.16-.86,0-1.56-.18-1.39-1.16,1.23-7.1-3.33-12.42-5.57-18.45A4.51,4.51,0,0,1,152.72,25.32Z"/><path class="cls-12" d="M59.68,161.53a9.84,9.84,0,0,1,2,.94q21.84,17.06,46.51,4.48a23.84,23.84,0,0,1,2.41-.89c-3.65,3.68-8.44,4.89-13.2,6.12-12.93,3.36-24.39-.11-34.91-7.7A7.3,7.3,0,0,1,59.68,161.53Z"/><path class="cls-13" d="M52.42,110c-2.53,6.46-5.22,12.82-5.31,20a42.82,42.82,0,0,0,6.08,22.73c.56,1,1,2,1.49,3-4.93-4.67-6.73-10.93-8-17.19-1.94-9.26-.17-18.16,4.12-26.58A4.17,4.17,0,0,1,52.42,110Z"/><path class="cls-14" d="M71.17,93.87l-8.34,4.29c4.37-4.78,10.3-6.54,16.22-8.27a29.4,29.4,0,0,1,3.27-.58c.45.38,1.21,0,1.54.66-3.21,1.32-7,.83-9.92,3A1.92,1.92,0,0,1,71.17,93.87Z"/><path class="cls-15" d="M107.61,95c-4.75-2.52-9.9-3.81-15.11-5,.08-.48.57-.5.86-.75A38.38,38.38,0,0,1,105,92.66C106,93.17,107.41,93.42,107.61,95Z"/><path class="cls-12" d="M110.53,166.08,121,156.35C118.56,160.72,115.3,164.22,110.53,166.08Z"/><path class="cls-16" d="M121,156.39l5.9-11.17C126.62,149.85,124.39,153.43,121,156.39Z"/><path class="cls-14" d="M62.86,98.14l-7.36,7.65C56.67,102,59.51,99.82,62.86,98.14Z"/><path class="cls-16" d="M126.83,116.83l-4.35-9.08C124.92,110.3,127.09,113,126.83,116.83Z"/><path class="cls-17" d="M93.36,89.25,92.5,90l-8.64,0-1.54-.66A63.6,63.6,0,0,1,93.36,89.25Z"/><path class="cls-18" d="M120.14,105l-6.07-6A8.42,8.42,0,0,1,120.14,105Z"/><path class="cls-2" d="M71.17,93.87,73.94,93a1.1,1.1,0,0,0,.2.31c2.48,2.12,3.83,5.8,6.34,7.08s6.24-.24,9.42-.1c14,.58,25.72,11,28.45,25.11a30.59,30.59,0,0,1-17.52,33.69,47.75,47.75,0,0,0-11.25,6.31c-1.6,1.3-3,1.41-4.54-.06-3.17-3-7-4.85-10.91-6.78-20-9.88-22.92-37.15-5.69-51.42C74.41,102.15,74.75,100.52,71.17,93.87Z"/><path class="cls-19" d="M110.51,161.57c-1.82,1.52-1.57-.95-2.44-1.29-.43-.17-.77-.67-1.3-.33s-.35.78-.23,1.28c.8,3.58-.93,5.33-5.05,5-1.26-.1-2.6-.68-3.4.76-.41.74-.42,1.74-1.67,1.45.75-1.73-1.59-2-1.6-3.35a1.68,1.68,0,0,1,1.57-1.75c2.69-.56,5.39-1,7.68-2.72.22-.16.93.17,1,0,2.74-4.76,3.82-.23,5.49,1Z"/><path class="cls-20" d="M87,95.74c1.45-.37.59-2,1.74-3-.07,2.68,4.17-.79,3.25,2.95,1.24-.43-.32-2.55,2-2.27,3.2.39-1.3,2.81,2.13,3,.36-.08-.41-2,.82-2.44.56.58.22,1.19.14,1.77-.1.79-.85,1.84.49,2.12.94.19,1-.88,1.24-1.54.52-1.57,1.25-1.68,2.72-.88s1.6,1,.43,2.21c-.39.39,0,1.59.08,2.28-3.16-.85-6.25-1.75-9.38-2.49-.81-.2-1.77.13-2.34-.72-.72-1-1-1.38-1.76.14-.53,1-1.72.7-2-.69C86.31,95.65,86.46,95.5,87,95.74Z"/><path class="cls-21" d="M108.42,104c2,.65,3.46-.91,5.23-1.32,1,1.42-.84,2.42-.4,3.89,2.37-1.94,4.32-2.72,4.43,1.58,0,1,1.73,0,2.16,1.15.79,2.12-1.36.25-1.33,1,0,1.51-1.61.45-1.87,1.34a8.58,8.58,0,0,0-.2,1.45l0,0c-.89-2.92-4.85-3.76-4.85-7.48,0-1-2.82.59-3.44-1.38Z"/><path class="cls-22" d="M72.48,166.79c-.91-.56-2.73-1.17-2.46-2.31.32-1.39.35-3.82,2.71-3.72,1,.05,3.1.53,2.27,2C74.28,164.11,75.4,166.66,72.48,166.79Z"/><path class="cls-23" d="M80.38,164.81c-1.25.9.14,3.78-2.6,3.65-1-.05-2.64-.3-2.1-1.87.47-1.4-.25-3.89,2.38-3.83A2.09,2.09,0,0,1,80.38,164.81Z"/><path class="cls-24" d="M50.11,138.82c-.37-2.71,2.22-1.81,3.52-2.45.78-.39,1.8.54,1.38,1-1.17,1.42-.31,4.45-3.31,4.37C49.71,141.73,50.48,140.06,50.11,138.82Z"/><path class="cls-25" d="M69.58,160.88c0,1.72.12,3.3-1.5,3.28s-3.1-1.26-2.84-2.72,1.34-3.26,3-3.27C70.07,158.16,69.65,160,69.58,160.88Z"/><path class="cls-26" d="M59.66,105c1.43,1,3,1.85,3.13,3.76.06.92-1,1.87-1.69,1.52-1.44-.72-3.67-.89-3.87-2.85C57.14,106.55,58.3,105.35,59.66,105Z"/><path class="cls-27" d="M108.2,104.19c-2.26-.22-1.45-3.84-4.44-3.3,2.82-2.75,4.78-2.59,8.34.51-2.89-1-4.22-.31-3.68,2.6Z"/><path class="cls-28" d="M54.1,131.45c-1.2,1.6-.73,4.6-3.56,4.42-1.91-.12-1.07-2.14-1-3C50,129.21,52.79,133,54.1,131.45Z"/><path class="cls-29" d="M49.57,129.31c-.15-3.4.84-4.11,3.88-3.09,1.13.39,1.21,1,1.15,1.91-.05.7.07,1.7-.87,1.76a2.47,2.47,0,0,1-2.27-.84C50.45,127.76,50.41,127.79,49.57,129.31Z"/><path class="cls-30" d="M54.61,147.43c-2.91.49-2.52-2.05-3.06-3.53-.35-1,.3-1.26,4.56-2.11-3.5,1.25.64,4.05-1.44,5.58Z"/><path class="cls-31" d="M53,120.82c2-.06,1.82,1.24,1.39,2.46a2,2,0,0,1-2.53,1.52c-1.48-.43-1.36-1.51-1-2.65l.54-1.75C52.05,120.05,52.54,120.39,53,120.82Z"/><path class="cls-32" d="M65.79,99.39c1.6-1.45,2.86-2.66,4-.28.48,1,2.4,2,.43,3.27-.64.42-1.32,1.45-2.17.6a1.94,1.94,0,0,1-.54-2.31C68,99.4,67.76,99.18,65.79,99.39Z"/><path class="cls-33" d="M63.9,154.45c-1,1.94,3,2.82.84,4.54-.77.62-3.36.47-3.63-.07C59.88,156.43,63.2,156.29,63.9,154.45Z"/><path class="cls-34" d="M116.44,113.1l4.83-1.41c-2.93,3.13,1,2.85,1.24,4.4l.06,0c-3.7,2.43-4-2-6.08-3Z"/><path class="cls-35" d="M54.67,147.37c1.22.2,2-.89,3.59-1.23-1.35,1.6,1.11,3.23-.52,4.46-1.33,1-2.05-2.5-3.83-.93-.72-1,.41-1.51.7-2.24Z"/><path class="cls-36" d="M116.45,150.35c-.69-1.66.16-2.61,1.54-3.24,1.22-.54,2.14,0,2.91,1,1,1.33.89,2.48-.78,3.78-.05-1.46.6-3.14-1.3-3.53-2.62-.52,0,2.48-1.74,2.59A1,1,0,0,1,116.45,150.35Z"/><path class="cls-37" d="M116.45,150.35l.63.57,1.76,2.41a31,31,0,0,0-3,1.24,1.37,1.37,0,0,1-2-.83c-.45-1.16.68-1.08,1.32-1C117.33,152.91,114.27,150.12,116.45,150.35Z"/><path class="cls-38" d="M121.72,138.44c.16.18.29.41.49.51,1.12.61,3.54.11,2.71,2.44s-2.46-.09-3.72.13a.72.72,0,0,1-1.06-.11c1.32-.54,0-2.58,1.64-2.91Z"/><path class="cls-39" d="M121.78,138.5a9.49,9.49,0,0,1-.66-2.42c0-1.48.94-2.16,2.34-2.24a2.29,2.29,0,0,1,2.64,2,2.11,2.11,0,0,1-1.84,2.66,12.7,12.7,0,0,1-2.54,0Z"/><path class="cls-40" d="M84.42,96.62c-.39,1-.83.79-1.61.26-1.15-.79-1.22-.68-2.49,1.17l-.84-3.65a3.73,3.73,0,0,1,5,2.27Z"/><path class="cls-41" d="M53,120.82l-1.61-.41c.53-1.14,1.1-2.27,1.59-3.42s1.09-1.88,2.4-1c.62,1.28.48,2.36-.84,3.11Z"/><path class="cls-42" d="M60.35,150.74c.39,2.17.21,3.68-1.88,4.43-1,.37-1.12-.7-1.14-.88C57.11,152.13,59.14,152,60.35,150.74Z"/><path class="cls-43" d="M65.39,102.54l2.41,2.23c-2.35-.23-3.75,2.36-5.75.25C61.5,102,63.73,102.62,65.39,102.54Z"/><path class="cls-44" d="M120.14,141.41l1.06.11c-.54,1.81,1.21,1.53,2,2.06s1.08,1.2.53,1.81c-1,1.08-.87-.54-1.39-.73C120.84,144.1,117.4,144.81,120.14,141.41Z"/><path class="cls-45" d="M54.54,119.09l.84-3.11c1.41,0,2.63.19,2,2.07C56.93,119.57,56.17,120.62,54.54,119.09Z"/><path class="cls-29" d="M110.4,157.77l.43-1.73c.82,1.77,3.19-.27,3.94,1.59.44,1.11-.22,1.59-1.22,1.76C112.1,159.63,110.85,159.48,110.4,157.77Z"/><path class="cls-46" d="M110.4,157.77l3.15,1.62c-.68,1.19-1.41,2.31-3,2.18l.06.06c.81-1.41-.44-2.11-1-3.07C108.62,157.06,109.45,157.32,110.4,157.77Z"/><path class="cls-47" d="M65.39,102.54c-.83,1.21-2.94.69-3.34,2.48-1.76-1.21-1-2.2.32-3.07C63.53,101.2,64.78,100.3,65.39,102.54Z"/><path class="cls-48" d="M122.51,116.09c1.24,2.85,1.24,2.85-2.89,3.07,1-1.27,2.54-1.71,2.95-3.12Z"/><path class="cls-49" d="M122.49,124.89c-1-1.8-.72-2.88,1.58-2.84.82.59,1.48,1.29.7,2.31C124.2,125.09,123.51,125.87,122.49,124.89Z"/><path class="cls-40" d="M121.82,126.86c1.72-.6,3.12-.87,4.36.28.15.13-.05.66-.09,1C124.76,127.7,123.06,128.85,121.82,126.86Z"/><path class="cls-50" d="M122.2,131.15c1.49-.08,2.91-.68,4.06.62.14.16-.09.95-.13.95C124.71,132.68,123,133.27,122.2,131.15Z"/><path class="cls-51" d="M122.49,124.89c2.38.09,2.84-.89,1.58-2.84,1.88,0,2,1.16,1.4,2.44s-1.72,2-3.2,1c-.06,0-.06-.22,0-.31A1,1,0,0,1,122.49,124.89Z"/><path class="cls-52" d="M55.6,110.15c1.91-.18,3.29.62,4.93,2.71C58.05,112.35,57.12,110.66,55.6,110.15Z"/><path class="cls-53" d="M86.54,96.17c-.82-.43-1.42.25-2.12.45l.07,0a5,5,0,0,1,.87-3.76c1.25.66,1.26,1.84,1.62,2.83A1.5,1.5,0,0,0,86.54,96.17Z"/><path class="cls-1" d="M33,208.92c0-3.1.06-6.21,0-9.31,0-1.48.24-2.12,2-2.22,7.57-.42,12,3.57,12.2,11.16.17,8-4,12.17-11.67,12.09-1.85,0-2.66-.36-2.54-2.42C33.13,215.13,33,212,33,208.92Z"/><path class="cls-54" d="M74.68,197.74c1.5,4.74,2.63,8.36,3.79,12,.44,1.38.17,2.05-1.46,2-2.07-.1-4.16,0-6.56,0Z"/><path class="cls-55" d="M126.26,37.72l2.51-8.8c1.78,2.34,1.89,5,2.73,7.44.32.92-.16,1.36-1.09,1.36Z"/><path class="cls-54" d="M81.41,36.49c3.32.34,6.44.06,6.42,3.51,0,3.82-3.24,3.52-6,3.74-3.86.32-2.31-2.46-2.58-4.18C78.87,37.17,79.66,35.9,81.41,36.49Z"/><path class="cls-56" d="M81.68,27.85c2.72-.08,5,.32,4.93,3.39s-2.5,3.18-4.86,3.44c-3.22.36-2.44-1.82-2.51-3.53C79.16,29.24,78.85,27.13,81.68,27.85Z"/><path class="cls-55" d="M141.3,32.24c-.41-3.08-.37-4.75,2.7-4.47,2.67.25,5.18.42,5.05,3.86s-2.67,3.55-5.29,3.81C139.89,35.82,141.48,33,141.3,32.24Z"/><path class="cls-1" d="M28.15,35.44a28.41,28.41,0,0,1,.8-3.86,5,5,0,0,1,5-3.71,5,5,0,0,1,5,3.69,11.43,11.43,0,0,1,.32,7.29c-.89,2.89-2.42,5-5.69,4.79S29,41.08,28.46,38.16C28.33,37.43,28.29,36.69,28.15,35.44Z"/><path class="cls-55" d="M64.42,37.48,66.86,29c1.5,1,1.36,2.62,1.78,3.94C70.24,38,70.17,38,64.42,37.48Z"/><path class="cls-57" d="M65.25,54.47C65.1,53,65,51.23,68,51.49c2.39.22,4.65.51,4.5,3.58-.14,2.89-2.3,3.31-4.72,3.52C64.54,58.88,65.35,56.69,65.25,54.47Z"/><path class="cls-56" d="M135.68,58.91c0,4.28-2.1,7.14-5.29,7.19-3.35.05-5.49-2.85-5.45-7.39,0-4.34,2.15-7,5.47-7S135.68,54.53,135.68,58.91Z"/><path class="cls-56" d="M58.13,58.77c.06,4.27-2,7.2-5.15,7.33-3.4.13-5.57-2.68-5.59-7.25,0-4.33,2-7.08,5.32-7.11S58.06,54.37,58.13,58.77Z"/><path class="cls-57" d="M142.84,55.59c0-2.14-.66-4.43,2.71-4.09,2.44.25,4.54.75,4.5,3.74s-2.07,3.85-4.72,4.09C141.72,59.65,143.12,57,142.84,55.59Z"/><path class="cls-58" d="M85.21,162.37c-7.14-3.85-8.51-9.68-3.59-15.73,1.8-2.21,3.82-4.25,5.69-6.41,3.61-4.18,5.18-8.76,2.4-14.41,7-1.49,13.68-.5,20.39.5,1.52.23,1.26,1.26,1.12,2.24-2.17,15.05-9.72,26.64-22.38,35-1.92,1.26-2.91.44-3.73-1.25,3.32-4.33,7.85-7.51,11.12-11.94a45.36,45.36,0,0,0,7.9-15.9c.89-3.58.5-4.09-3.27-4.17H99.37c-4,0-4,0-3.08,4.07a11.82,11.82,0,0,1-2,9.56,57.44,57.44,0,0,1-4.57,5.4c-2.59,3.07-5.11,6.19-3.8,10.7A2.32,2.32,0,0,1,85.21,162.37Z"/><path class="cls-59" d="M74.82,150.12C69.06,141.57,69.33,138.35,76,131c.92-1,1.88-2,2.74-3,3.89-4.7,4.11-7.28,1.05-14,2.61-1.21,5.44-1.3,8.16-1.49A88.3,88.3,0,0,1,109.41,114c1.46.26,3.24.39,2.63,2.6-.53,1.93-2,.76-3.05.59a79.37,79.37,0,0,0-25-.56c-.27,1.36.69,1.77,1.16,2.42,3,4.13,3.09,7,.08,11.18a34.64,34.64,0,0,1-2.87,3.42C78,138.23,73.47,142.74,74.82,150.12Z"/><path class="cls-60" d="M70.94,133.91c-8.74-6.25-9.33-11-3.19-18,1.39-1.58,2.89-3.08,4.26-4.68,3.2-3.72,5.24-7.81,3.44-13.25,5.76,5.41,6.35,11.15,2,16.77-1.14,1.46-2.44,2.81-3.71,4.17C69.9,123,67.26,127.27,70.94,133.91Z"/><path class="cls-61" d="M90.46,118.27c1.49,1.57,2.72,2.24,3.91-.68a9.09,9.09,0,0,1,.42,5.45c-1.34-1.92-2.7-3.58-3.55.23C89.93,121.52,90.57,120,90.46,118.27Z"/><path class="cls-62" d="M102,123.65c-.45-5.42-.32-5.56,4-5Z"/><path class="cls-63" d="M98.41,120.29c-1,.43-.68,2.06-2.26,2.36.13-2,.67-4.31,2.34-4.27,2,.05,1.57,2.68,2.61,4.36C98.85,122.62,99.48,120.79,98.41,120.29Z"/><path class="cls-64" d="M107.58,122c-.25-.83-1.44-1.52-.45-2.56a2,2,0,0,1,2-.44c1.38.39,2.54.92.22,1.81l.74,1.07C109.33,123,108.53,124,107.58,122Z"/><path class="cls-65" d="M107.58,122l2.55-.12c1,1.34.33,2.11-1,2.3a2.31,2.31,0,0,1-2.72-1.4C106.09,121.87,107,122.07,107.58,122Z"/><path class="cls-66" d="M114.68,108.88c-.55-.15-1.07-.47-.72-1a4.11,4.11,0,0,1,1.65-1.39c.54-.24.88.33.82.86A1.68,1.68,0,0,1,114.68,108.88Z"/><path class="cls-67" d="M125.34,136.11a1.31,1.31,0,0,1-1.39,1.38c-.92.08-1.82-.21-2-1.15s.58-1.29,1.35-1.38A1.88,1.88,0,0,1,125.34,136.11Z"/><path class="cls-68" d="M85.21,162.37c-2.54-5.58-.63-10.08,3.42-14.07.79-.79,1.51-1.65,2.29-2.45,4.88-5,6-10.45,1.44-16.76a42.87,42.87,0,0,1,12.79-.05c2,.2,1.28,1.69,1.07,2.85a44.53,44.53,0,0,1-13.91,25c-2.18,2-3.78,5-7.2,5.43Z"/></svg>