<svg id="레이어_1" data-name="레이어 1" xmlns="http://www.w3.org/2000/svg" viewBox="0 0 175.5 260.25"><defs><style>.cls-1{fill:#393939;}.cls-2{fill:#fefefe;}.cls-3{fill:#1166ae;}.cls-4{fill:#fdfdfd;}.cls-5{fill:#fcfcfc;}.cls-6{fill:#fafafa;}.cls-7{fill:#f9f9f9;}.cls-8{fill:#fbfbfb;}.cls-9{fill:#f8f8f8;}.cls-10{fill:#f6f6f6;}.cls-11{fill:#f7f7f7;}.cls-12{fill:#6c7278;}.cls-13{fill:#72777b;}.cls-14{fill:#6c7175;}.cls-15{fill:#687077;}.cls-16{fill:#697177;}.cls-17{fill:#8b8886;}.cls-18{fill:#707172;}.cls-19{fill:#91b3d6;}.cls-20{fill:#98b7d8;}.cls-21{fill:#90b3d6;}.cls-22{fill:#95b6d8;}.cls-23{fill:#a4bedc;}.cls-24{fill:#a8c1de;}.cls-25{fill:#a2bedc;}.cls-26{fill:#8eb0d5;}.cls-27{fill:#8eb1d6;}.cls-28{fill:#c2d0e6;}.cls-29{fill:#9ab8d9;}.cls-30{fill:#9cbbdb;}.cls-31{fill:#749fcc;}.cls-32{fill:#9fbcdb;}.cls-33{fill:#94b5d8;}.cls-34{fill:#aac2de;}.cls-35{fill:#96b5d8;}.cls-36{fill:#87add3;}.cls-37{fill:#aec6e0;}.cls-38{fill:#99b8d9;}.cls-39{fill:#9cbada;}.cls-40{fill:#a6c0dd;}.cls-41{fill:#4b88c0;}.cls-42{fill:#c4d5e8;}.cls-43{fill:#88add4;}.cls-44{fill:#97b7d9;}.cls-45{fill:#92b2d6;}.cls-46{fill:#97b7d8;}.cls-47{fill:#b7cbe3;}.cls-48{fill:#a1bddc;}.cls-49{fill:#0b62ac;}.cls-50{fill:#9dbbdb;}.cls-51{fill:#afc6e1;}.cls-52{fill:#acc5e0;}.cls-53{fill:#aec5e0;}.cls-54{fill:#3b3b3b;}.cls-55{fill:#3c3c3c;}.cls-56{fill:#3a3a3a;}.cls-57{fill:#3e3e3e;}.cls-58{fill:#1367ae;}.cls-59{fill:#1367af;}.cls-60{fill:#f28130;}.cls-61{fill:#4583bd;}.cls-62{fill:#518ac1;}.cls-63{fill:#3376b7;}.cls-64{fill:#3c7ab9;}.cls-65{fill:#6f9ccb;}.cls-66{fill:#085fab;}.cls-67{fill:#196ab1;}.cls-68{fill:#fdfefe;}</style></defs><path class="cls-1" d="M175.43,1q0,128.09.07,256.15c0,2.56-.5,3.06-3.05,3.06Q86.7,260.12.94,260.18c-.7-1.29-.36-2.69-.36-4q0-125.44,0-250.88C.57.13,0,.68,5.14.68q83.13,0,166.26,0C172.74.69,174.14.35,175.43,1Z"/><path class="cls-2" d="M175.43,1Q90.25,1,5.06,1C1.66,1,.85,1.81.86,5.18q.15,127.5.08,255c-1.56-.83-.7-2.27-.7-3.36Q.15,171.5.19,86.18c0-27.76,0-55.51-.06-83.27C.12.68.58.23,2.8.24q85,.1,170,.14C173.58.38,175-.82,175.43,1Z"/><path class="cls-3" d="M126.83,116.83c3.4,9.46,3.76,18.92,0,28.39-.85,4.31-3.39,7.73-5.9,11.17l0,0c-3.13,3.64-6.21,7.32-10.47,9.73l0,0c-12.93,8-26.37,9-40.22,2.72a44,44,0,0,1-10.66-7.25l-5-5.86c-9.93-13.26-10.81-30.94-2.26-45.7l3.08-4.18c1.84-3.14,4.61-5.39,7.36-7.65l0,0c2.7-1.82,5.22-4,8.49-4.78,4,3.19,4.44,8.13,1.15,12.07a49.28,49.28,0,0,1-4.32,4.11c-16.3,15.2-10.61,40.51,9.14,48.79a20.74,20.74,0,0,1,7,4.83c1.94,2,3.94,2.24,6.17.27A30.05,30.05,0,0,1,99.21,158c16.24-6.52,23.69-26.13,13.45-43-4.78-7.9-12.59-12.14-22-13a13.08,13.08,0,0,0-4.46,0c-6.45,1.76-8.8-3.52-12.2-7a2.26,2.26,0,0,1-.38-2.47c3.11-2.19,6.86-2.17,10.37-3,2.69,0,5.37,0,8,0,5.47,1,10.93,1.92,15.52,5.4a21,21,0,0,1,6.46,4,16.51,16.51,0,0,1,6.07,6l2.34,2.73C124.2,110.65,126.3,113.36,126.83,116.83Z"/><path class="cls-4" d="M29.27,209c0-4.1.08-8.2,0-12.3-.05-1.78.5-2.46,2.3-2.3a41.44,41.44,0,0,0,4.46,0c5.18-.07,10.09.82,12.82,5.81a17.6,17.6,0,0,1,0,17.47c-2.35,4.4-6.61,5.71-11.3,5.84-8.22.24-8.22.23-8.22-7.85Z"/><path class="cls-5" d="M62.89,223.23c3-8.87,6-17.55,8.93-26.25.49-1.45.84-2.6,2.9-2.62s2.46,1,3,2.54c3,8.79,6,17.56,8.94,26.34-3,1.08-4.39,0-4.9-2.76-.2-1.09-.73-2.12-.93-3.22-.36-2-1.38-3.06-3.55-2.65a7.4,7.4,0,0,1-1.49,0c-6.28,0-6.41,0-8.14,6C66.89,223.16,65.83,224.29,62.89,223.23Z"/><path class="cls-5" d="M135.32,220.39c3.69,0,6.78,0,9.87,0,1.07,0,2.59-.62,2.67,1.51s-1.35,1.65-2.5,1.66c-4.47,0-8.94,0-13.42,0-.87,0-2.1.61-2.56-.72-.37-1.09.37-1.84,1.1-2.57a88.8,88.8,0,0,0,9.71-10.8,12.19,12.19,0,0,0,2.45-5.37c.3-2.19,0-4.31-2-5.68a5.49,5.49,0,0,0-6.32,0,10.5,10.5,0,0,0-2.07,1.56c-.92.9-1.51.35-2.17-.3-.91-.89-.3-1.44.33-2.13a10.34,10.34,0,0,1,12.33-1.8c3.28,2,4.45,6.16,2.92,10.57s-4.85,7.74-7.85,11.22C137.13,218.34,136.4,219.16,135.32,220.39Z"/><path class="cls-6" d="M110.84,36.21c0-3.21,0-5.82,0-8.43,0-1-.17-2.05,1.38-2.1s1.3,1.13,1.31,2c0,4.34.11,8.7,0,13-.07,2.11.32,2.86,2.75,3.07,4.14.34,6.31-.8,7.16-5.11.74-3.74,2.35-7.3,3.56-10.95.35-1.06.55-2.07,2.09-2.13s1.82,1,2.16,2c1.82,5.4,3.62,10.81,5.35,16.24.17.53,1,1.42-.1,1.81-.94.34-2,.34-2.34-1-.13-.48-.34-.93-.44-1.42-.46-2.22-1.18-3.72-4.07-3.51-2.62.2-4.92,0-5.2,3.51-.17,2.11-1.47,2.81-3.58,2.61-3.19-.31-7.42,1.31-9.33-.6C109.41,43.2,111.14,38.92,110.84,36.21Z"/><path class="cls-5" d="M96.72,194.8c2.8-.91,4.17-.14,5.13,2.35,1.51,3.92,3.44,7.66,5.38,11.88,1.92-4.17,3.82-7.92,5.38-11.81,1-2.36,2.21-3.44,5-2.42-1.56,3.21-2.88,6.53-4.69,9.56A25.76,25.76,0,0,0,109,221c.15,1.28.43,2.69-1.85,2.68s-2-1.46-1.82-2.7c1.19-7.25-2.08-13.23-5.25-19.27C99,199.5,97.94,197.26,96.72,194.8Z"/><path class="cls-7" d="M29.75,64c1-4.1,2-8.2,3-12.29.22-.87.08-2.1,1.58-2.11s1.42,1.08,1.65,2c1,4.19,2.08,8.38,3.34,13.5,1-5.15,1.8-9.34,2.59-13.55.18-1,.13-2.18,1.59-1.94,1.76.3.7,1.63.57,2.36-.87,4.77-1.9,9.51-2.84,14.27-.2,1-.26,1.94-1.66,2s-1.84-.73-2.12-2A77.74,77.74,0,0,0,34,54.63c-.87,3.64-1.69,7.29-2.64,10.9-.31,1.18-.1,2.84-2.24,2.76s-1.57-1.68-1.8-2.69c-1.06-4.6-2-9.23-2.89-13.86-.15-.74-.92-1.75.49-2.1s1.73.55,1.93,1.65Q28,57.67,29.21,64Z"/><path class="cls-7" d="M81.57,45.86c-5,0-5,0-5-5.13,0-4,.17-7.94-.06-11.9-.17-2.72.88-3.5,3.37-3.17,1.09.14,2.22,0,3.34,0,5.28.24,7.3,3.57,5,8.27-.36.73-1.31,1.27-.06,2,2.55,1.58,3,4,1.86,6.46s-3.54,3.29-6.16,3.39C83.06,45.88,82.32,45.86,81.57,45.86Z"/><path class="cls-7" d="M152,45.45c-1.94.94-2.91.16-3.69-1.4-.94-1.87-2.06-3.66-3.07-5.5-.8-1.44-2.14-1.06-3.29-.9s-.72,1.35-.77,2.11c-.09,1.48,0,3,0,4.46,0,.92,0,1.73-1.34,1.64-.91-.06-1.35-.45-1.35-1.35q0-8.73,0-17.47c0-.67.24-1.31,1-1.29,3.18.1,6.49-.8,9.5.78a5.65,5.65,0,0,1,.55,9.41c-2,1.45-1.76,2.42-.68,4.07S150.92,43.62,152,45.45Z"/><path class="cls-6" d="M25.54,35.66c0-6.11,3.42-10.07,8.58-10,4.9.09,8.31,4.2,8.29,10,0,6.07-3.46,10.2-8.48,10.19S25.53,41.81,25.54,35.66Z"/><path class="cls-6" d="M59.2,45.49c2-6,4-12,5.92-17.94.37-1.15.81-1.94,2.27-1.91s1.57,1,1.87,1.89c1.85,5.5,3.69,11,5.45,16.55.16.48,1.1,1.41-.27,1.69-.68.15-1.51.35-2-.51a12.79,12.79,0,0,1-.55-1.38c-1.38-3.75-3.53-4.91-7.29-4-1.92.47-1.59,2.25-2.1,3.51C61.66,45.58,61.72,45.61,59.2,45.49Z"/><path class="cls-6" d="M106,33.39c0,2,.13,4,0,6-.34,4.13-2.53,6.32-6.23,6.5-4,.19-6.49-1.73-7.23-5.86s-.2-8.41-.33-12.62c0-1,.21-1.66,1.42-1.68s1.28.81,1.28,1.7c0,3.47-.1,7,0,10.42.11,2.83.6,5.63,4.28,5.87,2.83.18,4.48-1.93,4.6-5.94.1-3.22,0-6.45.06-9.68,0-.83-.62-2.22,1-2.3,2-.1,1.15,1.52,1.21,2.43.12,1.73,0,3.47,0,5.21Z"/><path class="cls-8" d="M75,68c-1.63.79-2.51.06-3.21-1.38-.81-1.67-1.83-3.23-2.67-4.89-.65-1.27-1.72-1.32-2.84-1.09s-.91,1.3-.94,2.12c0,1.37,0,2.73,0,4.1,0,.83-.24,1.4-1.23,1.42s-1.21-.6-1.21-1.42c0-5.2,0-10.41,0-15.62a2.16,2.16,0,0,1,.38-1.34c.65-.75,8.15-.23,9.38.59,2.34,1.57,2.4,3.87,2,6.3a1.07,1.07,0,0,1-.29.67c-5.06,3.38-1.14,6.39.36,9.5A6,6,0,0,1,75,68Z"/><path class="cls-7" d="M138.15,59c0,5.63-3.18,9.3-7.94,9.25s-7.77-3.8-7.73-9.46,3.09-9.27,7.94-9.22S138.18,53.27,138.15,59Z"/><path class="cls-7" d="M60.6,58.73c.06,5.66-3,9.45-7.66,9.53s-8-3.55-8-9.18,2.9-9.42,7.66-9.5S60.53,53,60.6,58.73Z"/><path class="cls-8" d="M80.19,58.18c3.92-2.65,4.92-7.69,9.51-8.58-6.28,5.57-3.56,10.88.26,16.21a22.44,22.44,0,0,1,1.11,2c-2.47.3-2.47.3-4.51-3.27L83.43,59c-2.8,1.72-3.57,4.24-3.26,7.28.07.77.33,1.83-1,1.95-1.62.13-1.38-1-1.39-2q0-7.44,0-14.87c0-.83-.2-1.82,1.18-1.81s1.25.9,1.26,1.78C80.2,53.46,80.19,55.54,80.19,58.18Z"/><path class="cls-4" d="M119.5,58.75c0,2.61,0,5.22,0,7.83,0,.7.16,1.54-.94,1.65-1.36.13-1.28-.81-1.28-1.69a9.62,9.62,0,0,1,0-1.86c.67-3.8-.8-4.71-4.66-4.93-5.17-.28-4,2.8-4.13,5.59-.06,1,.84,2.86-1.22,2.84s-1.12-1.86-1.15-2.87c-.1-4.47-.07-9,0-13.42,0-.84-.56-2.18,1.06-2.27,1.93-.09,1.21,1.44,1.35,2.4a4.38,4.38,0,0,1,0,1.49c-.71,3.72,1,4.39,4.43,4.43s5-.82,4.35-4.44a12.64,12.64,0,0,1,0-2.61c0-.64.1-1.21.94-1.28,1-.09,1.28.46,1.28,1.32C119.49,53.54,119.5,56.14,119.5,58.75Z"/><path class="cls-9" d="M18.5,43C20,37.57,21.42,32.7,22.84,27.83c.33-1.14.59-2.72,2.34-2s.26,1.95,0,2.72c-1.36,4.89-2.89,9.73-4.48,14.55-.37,1.14-.15,2.8-2.25,2.85-2.3.06-2.11-1.76-2.52-3-1.56-4.7-3.07-9.42-4.39-14.19-.24-.85-1.83-2.29.11-2.93s2,1.33,2.39,2.49c1.14,3.66,2.14,7.37,3.21,11.06C17.6,40.37,18,41.4,18.5,43Z"/><path class="cls-10" d="M44.17,35.91c0-7.29,5.42-12,11.31-9.73,1,.4,2.92.68,2.42,2.19-.69,2.06-1.94.19-2.95-.07a9.43,9.43,0,0,0-1.77-.41,5.44,5.44,0,0,0-5.51,3.6C46.2,34.8,46.77,39.84,49,42c2,2,4.3,2.15,6.79.9.76-.38,1.56-1.82,2.44-.47s-.64,1.92-1.48,2.41C50.82,48.35,44.22,43.62,44.17,35.91Z"/><path class="cls-9" d="M97.52,68.28a7.38,7.38,0,0,1-4.86-1.75c-.47-.35-1-.8-.56-1.52a1.09,1.09,0,0,1,1.82-.33A6.13,6.13,0,0,0,98,66.11c1.66,0,3-.56,3.46-2.22s-.64-2.57-1.9-3.24c-1.52-.82-3.16-1.42-4.66-2.28a4.31,4.31,0,0,1-2.28-5c.5-2.21,2.15-3.28,4.21-3.67a6.53,6.53,0,0,1,5.88,1.57.85.85,0,0,1,.07,1.29c-.29.33-.65.71-1.25.32a6.31,6.31,0,0,0-2-1c-1.76-.35-3.66-.46-4.43,1.6s1,2.82,2.4,3.56c.87.46,1.8.82,2.7,1.22,2.62,1.17,4.44,2.93,3.58,6C103,67.28,100.71,68.31,97.52,68.28Z"/><path class="cls-6" d="M144,49.57c3.77,0,7,0,8.13,3.87,1.2,4.18-1.26,7.6-6,7.69-3,.06-3.56,1.1-3.38,3.71.07,1.11.95,3.21-1.05,3.29-2.57.09-1.2-2.25-1.27-3.4-.21-3.58.13-7.2-.13-10.78C140.07,50.59,140.61,48.51,144,49.57Z"/><path class="cls-11" d="M159.84,35.15c1.21-2.66,2.39-5.09,3.43-7.58.53-1.27,1.25-2.47,2.65-1.75,1.24.65,0,1.77-.35,2.49-2.41,5.11-5.57,10-4.61,16.07a1.16,1.16,0,0,1-1.21,1.47c-.82,0-1.62-.08-1.44-1.11,1.24-7.21-3.43-12.63-6-19.49C157.81,26.82,156.73,32.32,159.84,35.15Z"/><path class="cls-12" d="M59.68,161.53a9.84,9.84,0,0,1,2,.94q21.84,17.06,46.51,4.48a23.84,23.84,0,0,1,2.41-.89c-3.65,3.68-8.44,4.89-13.2,6.12-12.93,3.36-24.39-.11-34.91-7.7A7.3,7.3,0,0,1,59.68,161.53Z"/><path class="cls-13" d="M52.42,110c-2.53,6.46-5.22,12.83-5.31,20a42.82,42.82,0,0,0,6.08,22.73c.56,1,1,2,1.49,3-4.93-4.67-6.73-10.93-8-17.19-1.94-9.26-.17-18.16,4.12-26.58A4.17,4.17,0,0,1,52.42,110Z"/><path class="cls-14" d="M83.86,90c-3.21,1.32-7,.83-9.92,3a1.92,1.92,0,0,1-2.77.91l-8.34,4.29c4.37-4.78,10.3-6.54,16.22-8.27a29.4,29.4,0,0,1,3.27-.58C82.77,89.69,83.53,89.32,83.86,90Z"/><path class="cls-15" d="M107.61,95c-4.75-2.52-9.9-3.81-15.11-5,.08-.48.57-.5.86-.75A38.38,38.38,0,0,1,105,92.66C106,93.17,107.41,93.42,107.61,95Z"/><path class="cls-12" d="M110.53,166.08,121,156.35C118.56,160.72,115.3,164.22,110.53,166.08Z"/><path class="cls-16" d="M121,156.39l5.9-11.17C126.62,149.85,124.39,153.43,121,156.39Z"/><path class="cls-14" d="M62.86,98.14l-7.36,7.65C56.67,102,59.51,99.82,62.86,98.14Z"/><path class="cls-16" d="M126.83,116.83l-4.35-9.08C124.92,110.3,127.09,113,126.83,116.83Z"/><path class="cls-17" d="M93.36,89.25,92.5,90l-8.64,0-1.54-.66A63.6,63.6,0,0,1,93.36,89.25Z"/><path class="cls-18" d="M120.14,105l-6.07-6A8.42,8.42,0,0,1,120.14,105Z"/><path class="cls-2" d="M71.17,93.87,73.94,93a1.1,1.1,0,0,0,.2.31c2.48,2.12,3.83,5.8,6.34,7.08s6.24-.24,9.42-.1c14,.58,25.72,11,28.45,25.11a30.59,30.59,0,0,1-17.52,33.69,47.75,47.75,0,0,0-11.25,6.31c-1.6,1.3-3,1.41-4.54-.06-3.17-3-7-4.85-10.91-6.78-20-9.89-22.92-37.15-5.69-51.42C74.41,102.15,74.75,100.52,71.17,93.87Z"/><path class="cls-19" d="M110.51,161.57c-1.82,1.52-1.57-.95-2.44-1.29-.43-.17-.77-.67-1.3-.33s-.35.78-.23,1.28c.8,3.58-.93,5.33-5.05,5-1.26-.1-2.6-.68-3.4.76-.41.74-.42,1.74-1.67,1.45.75-1.73-1.59-2-1.6-3.35a1.68,1.68,0,0,1,1.57-1.75c2.69-.56,5.39-1,7.68-2.72.22-.16.93.17,1,0,2.74-4.76,3.82-.23,5.49,1Z"/><path class="cls-20" d="M87,95.74c1.47-.36.54-2,1.72-2.88.14,2.3,3.77-.29,3.46,2.78,1-.36-.51-2.48,1.86-2.2,3.2.39-1.3,2.81,2.12,3,.37-.08-.4-2,.83-2.44.56.58.22,1.19.14,1.77-.1.79-.85,1.85.49,2.12.94.19,1-.88,1.24-1.54.52-1.57,1.25-1.67,2.73-.88s1.58,1,.42,2.21c-.38.39,0,1.59.08,2.28-3.16-.85-6.25-1.75-9.38-2.49-.81-.19-1.77.13-2.34-.72-.72-1.07-1-1.36-1.77.14-.53,1-1.71.69-2-.69C86.31,95.64,86.46,95.5,87,95.74Z"/><path class="cls-21" d="M108.42,104c2,.65,3.46-.91,5.36-1.35.74,1.43-.78,2.47-.68,4,2.52-2.07,4.47-2.85,4.58,1.45,0,1,1.73,0,2.16,1.15.79,2.12-1.36.25-1.33,1,0,1.51-1.61.45-1.87,1.34a8.58,8.58,0,0,0-.2,1.45l0,0c-.89-2.92-4.85-3.76-4.85-7.48,0-1-2.82.59-3.44-1.38Z"/><path class="cls-22" d="M75.23,162.91c-1.59.8.19,3.84-2.47,3.81-1.27,0-3-1.19-2.75-2.19.3-1.41.37-3.79,2.67-3.78A2.24,2.24,0,0,1,75.23,162.91Z"/><path class="cls-23" d="M78.09,162.66c.92.53,2.69.61,2.12,2s.23,4-2.48,3.79c-1-.06-2.63-.3-2-1.9C76.19,165.16,75.49,162.81,78.09,162.66Z"/><path class="cls-24" d="M50.11,138.82c-.41-2.7,2.2-1.8,3.49-2.45.77-.39,1.83.54,1.41,1-1.22,1.39-.24,4.46-3.28,4.4C49.73,141.74,50.47,140.09,50.11,138.82Z"/><path class="cls-25" d="M69.53,162.15c0,.46.34,2.28-1.77,2-1.25-.19-2.85-1.25-2.54-2.63s1.37-3.27,3-3.32C70,158.12,69.63,160,69.53,162.15Z"/><path class="cls-26" d="M63,108.34c-.32,1.35-1,2.4-2,1.92-1.36-.64-3.42-.88-3.68-2.64-.16-1.09,1.15-2.61,2.25-2.46C61.22,105.38,62.09,107.11,63,108.34Z"/><path class="cls-27" d="M108.2,104.19c-2.27-.21-1.44-3.85-4.44-3.3,2.82-2.75,4.78-2.59,8.34.51-2.89-1-4.22-.31-3.68,2.6Z"/><path class="cls-28" d="M54,131.47c-1.21,1.62-.76,4.85-3.69,4.36-1.63-.28-.94-2.29-.79-3.17C50.1,129.62,52.66,132.7,54,131.47Z"/><path class="cls-29" d="M49.61,129.3c-.22-3.39.72-4.08,3.79-3.08a1.5,1.5,0,0,1,1.2,1.87c-.05.71.08,1.7-.83,1.8a2.53,2.53,0,0,1-2.3-.8C50.43,127.84,50.38,127.86,49.61,129.3Z"/><path class="cls-30" d="M54.61,147.43c-2.91.49-3.07-2.18-3-3.5.17-2,2.59-1.7,4.33-2.3-3.38,1.41.76,4.21-1.32,5.74Z"/><path class="cls-31" d="M53,120.82c2-.06,1.82,1.24,1.39,2.46a2,2,0,0,1-2.53,1.52c-1.48-.43-1.36-1.51-1-2.65l.54-1.75C52.05,120.05,52.54,120.39,53,120.82Z"/><path class="cls-32" d="M65.68,99.4c2.59-1.72,5.17-.64,5.34,1.68.09,1.16-.94,1.32-1.58,1.81-.49.38-1.09.71-1.55-.08a2,2,0,0,1-.23-2.37C68.29,99.39,68,99.17,65.68,99.4Z"/><path class="cls-33" d="M64,154.48c-1.64,2.05,3.14,2.87.86,4.48-.87.61-3.35.57-3.67,0C59.71,156.44,63.35,156.38,64,154.48Z"/><path class="cls-34" d="M116.44,113.1l4.83-1.41c-2.93,3.13,1,2.85,1.24,4.4l.06,0c-3.7,2.43-4-2-6.08-3Z"/><path class="cls-35" d="M54.67,147.37c1.22.2,2-.89,3.59-1.23-1.35,1.6,1.11,3.23-.52,4.46-1.33,1-2.05-2.5-3.83-.93-.72-1,.41-1.51.7-2.24Z"/><path class="cls-36" d="M116.45,150.35c-.69-1.66.16-2.61,1.54-3.24,1.22-.54,2.14,0,2.91,1,1,1.33.89,2.48-.78,3.78-.05-1.46.6-3.14-1.3-3.53-2.62-.52,0,2.48-1.74,2.59A1,1,0,0,1,116.45,150.35Z"/><path class="cls-37" d="M116.45,150.35l.63.57,1.76,2.41a31,31,0,0,0-3,1.24,1.37,1.37,0,0,1-2-.83c-.45-1.16.68-1.08,1.32-1C117.33,152.91,114.27,150.12,116.45,150.35Z"/><path class="cls-38" d="M120.14,141.41c1.32-.54,0-2.58,1.64-2.91l-.06-.06c.16.18.29.41.49.51,1.12.61,3.54.11,2.71,2.44s-2.46-.09-3.72.13A.72.72,0,0,1,120.14,141.41Z"/><path class="cls-39" d="M121.78,138.5a9.49,9.49,0,0,1-.66-2.42c0-1.48.94-2.16,2.34-2.24a2.29,2.29,0,0,1,2.64,2,2.11,2.11,0,0,1-1.84,2.66,12.7,12.7,0,0,1-2.54,0Z"/><path class="cls-40" d="M84.42,96.62c-.39,1-1,1-1.58.22-1.74-2.11-1.6.48-2.37,1-.89-1-.53-2.31-1-3.4a3.73,3.73,0,0,1,5,2.27Z"/><path class="cls-41" d="M53,120.82l-1.61-.41c.53-1.14,1.1-2.27,1.59-3.42s1.09-1.88,2.4-1c.62,1.28.48,2.36-.84,3.11Z"/><path class="cls-42" d="M60.32,150.41c.45,2.63.11,4.13-2,4.78-1,.31-1.09-.79-1.11-1C57,152.15,59.09,152.11,60.32,150.41Z"/><path class="cls-43" d="M65.39,102.54l2.41,2.23c-2.35-.23-3.75,2.36-5.75.25C61.5,102,63.73,102.62,65.39,102.54Z"/><path class="cls-44" d="M120.14,141.41l1.06.11c-.54,1.81,1.21,1.53,2,2.06s1.08,1.2.53,1.81c-1,1.08-.87-.54-1.39-.73C120.84,144.1,117.4,144.81,120.14,141.41Z"/><path class="cls-45" d="M54.54,119.09l.84-3.11c1.41,0,2.63.19,2,2.07C56.93,119.57,56.17,120.62,54.54,119.09Z"/><path class="cls-29" d="M110.4,157.77l.43-1.73c.82,1.77,3.19-.27,3.94,1.59.44,1.11-.22,1.59-1.22,1.76C112.1,159.63,110.85,159.48,110.4,157.77Z"/><path class="cls-46" d="M110.4,157.77l3.15,1.62c-.68,1.19-1.41,2.31-3,2.18l.06.06c.81-1.41-.44-2.11-1-3.07C108.62,157.06,109.45,157.32,110.4,157.77Z"/><path class="cls-47" d="M65.39,102.54c-.83,1.21-2.94.69-3.34,2.48-1.76-1.21-1-2.2.32-3.07C63.53,101.2,64.78,100.3,65.39,102.54Z"/><path class="cls-48" d="M122.51,116.09c1.24,2.85,1.24,2.85-2.89,3.07,1-1.27,2.54-1.71,2.95-3.12Z"/><path class="cls-49" d="M122.49,124.89c-1-1.8-.72-2.88,1.58-2.84.82.59,1.48,1.29.7,2.31C124.2,125.09,123.51,125.87,122.49,124.89Z"/><path class="cls-40" d="M122,127.07c.27-.21.45-.46.65-.48,1.27-.13,2.68-.76,3.61.71.12.18-.17.62-.27.94C124.69,127.67,122.91,128.77,122,127.07Z"/><path class="cls-50" d="M122,131c1.71.24,3.28-.72,4.28.94.1.16-.2.82-.32.83C124.59,132.8,123.11,133.08,122,131Z"/><path class="cls-51" d="M122.49,124.89c2.38.09,2.84-.89,1.58-2.84,1.88,0,2,1.16,1.4,2.44s-1.72,2-3.2,1c-.06,0-.06-.22,0-.31A1,1,0,0,1,122.49,124.89Z"/><path class="cls-52" d="M59.54,112.76l-4-2.42C57.42,110.08,58.89,110.69,59.54,112.76Z"/><path class="cls-53" d="M84.49,96.67a4.22,4.22,0,0,1,1-3.7c1.14.6,1.15,1.79,1.51,2.77a1.39,1.39,0,0,0-.44.43c-.83-.43-1.42.25-2.12.45Z"/><path class="cls-1" d="M33,209c0-2.73.2-5.48,0-8.19s.53-3.62,3.39-3.47c7.39.39,11.29,4.75,10.82,12.54-.44,7.35-5,11.28-12.29,10.72-1.43-.11-1.93-.49-1.89-1.93C33.06,215.49,33,212.26,33,209Z"/><path class="cls-54" d="M70.45,211.64c1.36-4.48,2.61-8.62,4.06-13.37,2,4.19,2.82,8.25,4.07,12.13.48,1.46-.76,1.22-1.56,1.23C74.93,211.66,72.84,211.64,70.45,211.64Z"/><path class="cls-55" d="M126.26,37.72l2.52-8.83c1.74,2.38,1.91,5.08,2.73,7.51.32,1-.24,1.32-1.14,1.32Z"/><path class="cls-54" d="M82.06,43.71c-2.44.66-3.09-.7-2.85-3.2.19-1.95-.72-4.43,2.88-3.93,2.53.35,5.76-.13,5.75,3.58C87.83,43.45,85,43.72,82.06,43.71Z"/><path class="cls-56" d="M79.27,31.06c-.4-2.27.08-3.54,2.81-3.28,2.26.22,4.5.39,4.53,3.21,0,3.2-2.48,3.45-5,3.69C78.28,35,79.45,32.62,79.27,31.06Z"/><path class="cls-55" d="M143.89,27.85c2.83-.07,5.19.38,5.16,3.58,0,3.55-2.69,3.84-5.46,4-4.29.22-2-3-2.41-4.65C140.59,28.38,141.68,27.3,143.89,27.85Z"/><path class="cls-1" d="M28.23,36.05a12.14,12.14,0,0,1,.9-5,5.21,5.21,0,0,1,9.74.29,11.33,11.33,0,0,1,.45,7.28c-.85,2.86-2.25,5.12-5.54,5C30.33,43.51,29,41.06,28.43,38,28.31,37.27,28.28,36.53,28.23,36.05Z"/><path class="cls-55" d="M67.07,28.23c.76,2.23,1.23,3.48,1.61,4.75,1.51,5.05,1.5,5.05-4.23,4.5Z"/><path class="cls-57" d="M65.29,55c0-1.71-.54-3.76,2.55-3.49,2.35.2,4.69.35,4.63,3.45,0,2.9-2.16,3.39-4.59,3.65C64.76,58.93,65.24,56.93,65.29,55Z"/><path class="cls-56" d="M135.68,58.93c0,4.29-2.11,7.13-5.31,7.17-3.35,0-5.48-2.87-5.43-7.41.06-4.34,2.17-7,5.49-6.95S135.69,54.55,135.68,58.93Z"/><path class="cls-56" d="M58.13,58.91c0,4.29-2.1,7.14-5.29,7.19-3.36.05-5.5-2.86-5.45-7.39,0-4.34,2.15-7,5.47-7S58.13,54.53,58.13,58.91Z"/><path class="cls-57" d="M145.22,51.54c2.62.05,4.8.57,4.82,3.58,0,3.26-2.15,4.09-5,4.19-3.71.14-2-2.64-2.2-4.21C142.66,53.35,142.22,51,145.22,51.54Z"/><path class="cls-58" d="M85.21,162.37c-7.14-3.85-8.51-9.68-3.59-15.73,1.8-2.21,3.82-4.25,5.69-6.41,3.61-4.18,5.18-8.76,2.4-14.41,7-1.49,13.68-.5,20.39.5,1.52.23,1.26,1.26,1.12,2.24-2.17,15.05-9.72,26.64-22.38,35-1.92,1.26-2.91.44-3.73-1.25,3.32-4.33,7.85-7.51,11.12-11.94a45.36,45.36,0,0,0,7.9-15.9c.89-3.58.5-4.09-3.27-4.17H99.37c-4,0-4,0-3.08,4.07a11.82,11.82,0,0,1-2,9.56,57.44,57.44,0,0,1-4.57,5.4c-2.59,3.07-5.11,6.19-3.8,10.7A2.32,2.32,0,0,1,85.21,162.37Z"/><path class="cls-59" d="M74.66,150.33c-5.6-8.83-5.32-12,1.36-19.31,1.09-1.19,2.17-2.38,3.2-3.62,2.88-3.47,3.77-7.25,1.43-11.35-.88-1.53-1-2.37,1.06-2.73,9.67-1.71,19.25-.89,28.82.87,1.45.27,1.79,1.13,1.54,2.4-.33,1.62-1.56.9-2.38.73a82.78,82.78,0,0,0-19.24-1.38,19.67,19.67,0,0,0-6.59.87c0,1.37,1.14,1.93,1.73,2.81,2.41,3.57,2.52,6.39,0,10a49.79,49.79,0,0,1-4.31,5.11C75.79,140.65,75.24,141.88,74.66,150.33Z"/><path class="cls-60" d="M75.26,97.69c6.23,6.47,6.52,11.84,1.6,17.8-.79,1-1.66,1.85-2.5,2.76-5.53,6-6,7.39-4.31,14.85-7.42-4.45-8.4-9.88-2.92-16.38,1.76-2.09,3.7-4,5.43-6.13C75.44,107.08,77.17,103.22,75.26,97.69Z"/><path class="cls-61" d="M90.53,122.63l-.32-4.38c1.68.88,3.23,2.87,4.21-.82a9,9,0,0,1,.32,5.42C93.51,121.42,92.1,119.21,90.53,122.63Z"/><path class="cls-62" d="M101.82,122.83c-.17-4.78-.1-4.86,4.18-4C104.35,120,104.22,122.24,101.82,122.83Z"/><path class="cls-63" d="M95.64,122.69c1.11-1.9,1-4.49,3-4.32,1.76.14,1.6,2.61,2.31,4.26-2.19.2-1.26-2.17-2.72-2.3C97.48,120.84,97.72,122.4,95.64,122.69Z"/><path class="cls-64" d="M107.58,122c-.25-.83-1.44-1.52-.45-2.56a2,2,0,0,1,2-.44c1.38.39,2.54.92.22,1.81l.74,1.07C109.33,123,108.53,124,107.58,122Z"/><path class="cls-65" d="M107.58,122l2.55-.12c1,1.34.33,2.11-1,2.3a2.31,2.31,0,0,1-2.72-1.4C106.09,121.87,107,122.07,107.58,122Z"/><path class="cls-66" d="M115.3,106.5c.85-.08,1.15.23,1.13.81a1.62,1.62,0,0,1-1.37,1.52c-.53.15-1.1,0-1.15-.58C113.82,107.17,115,107.1,115.3,106.5Z"/><path class="cls-67" d="M125.35,136.29a1.43,1.43,0,0,1-1.64,1.21c-.87-.07-1.83-.3-1.8-1.4,0-.84.81-1.19,1.59-1.15S125.19,135.29,125.35,136.29Z"/><path class="cls-68" d="M85.21,162.37c-2.54-5.58-.63-10.08,3.42-14.07.79-.79,1.55-1.61,2.29-2.45,5.2-5.92,5.52-8.68,1.79-16.82,4.22-.79,8.34-.42,12.44,0,2,.2,1.28,1.69,1.07,2.85a44.53,44.53,0,0,1-13.91,25c-2.18,2-3.78,5-7.2,5.43Z"/></svg>