<svg id="레이어_1" data-name="레이어 1" xmlns="http://www.w3.org/2000/svg" viewBox="0 0 225 225"><defs><style>.cls-1{fill:#fefefe;}.cls-2{fill:#666;}.cls-3{fill:#64696c;}.cls-4{fill:#63676b;}.cls-5{fill:#606263;}.cls-6{fill:#717579;}.cls-7{fill:#1467af;}.cls-8{fill:#e4e9f3;}.cls-9{fill:#e7ebf4;}.cls-10{fill:#e6ebf4;}.cls-11{fill:#e2e8f2;}.cls-12{fill:#d9e1ee;}.cls-13{fill:#ebeff6;}.cls-14{fill:#e5eaf3;}.cls-15{fill:#dde4f0;}.cls-16{fill:#e0e6f1;}.cls-17{fill:#d5dfed;}.cls-18{fill:#dee4f0;}.cls-19{fill:#dfe5f1;}.cls-20{fill:#cbd6e9;}.cls-21{fill:#d7deed;}.cls-22{fill:#d8e0ee;}.cls-23{fill:#e3e8f2;}.cls-24{fill:#c7d5e8;}.cls-25{fill:#dce3ef;}.cls-26{fill:#d5deed;}.cls-27{fill:#e3e9f2;}.cls-28{fill:#e4eaf3;}.cls-29{fill:#f1f4f8;}.cls-30{fill:#2170b4;}.cls-31{fill:#e6eaf3;}.cls-32{fill:#dae2ef;}.cls-33{fill:#dbe2ef;}.cls-34{fill:#e1e7f1;}.cls-35{fill:#d4dded;}.cls-36{fill:#c7d3e7;}.cls-37{fill:#dae1ef;}.cls-38{fill:#d2dbeb;}.cls-39{fill:#eff2f7;}.cls-40{fill:#1f6db2;}.cls-41{fill:#eceff6;}.cls-42{fill:#cad4e8;}.cls-43{fill:#d4ddec;}.cls-44{fill:#edf0f6;}.cls-45{fill:#d7e0ee;}.cls-46{fill:#becee5;}.cls-47{fill:#e9edf4;}.cls-48{fill:#d3dceb;}.cls-49{fill:#dce3f0;}.cls-50{fill:#b0c2de;}.cls-51{fill:#dfe6f1;}.cls-52{fill:#e8ecf4;}.cls-53{fill:#c3d0e5;}.cls-54{fill:#206ab1;}.cls-55{fill:#206eb2;}.cls-56{fill:#fcfcfd;}.cls-57{fill:#d6dfed;}.cls-58{fill:#e9edf5;}.cls-59{fill:#e1e6f1;}.cls-60{fill:#c5d0e5;}.cls-61{fill:#ced8ea;}.cls-62{fill:#aebfdd;}.cls-63{fill:#f28231;}.cls-64{fill:#1468af;}.cls-65{fill:#1e6eb2;}.cls-66{fill:#1367af;}.cls-67{fill:#1066ae;}.cls-68{fill:#0e64ae;}.cls-69{fill:#1669b0;}.cls-70{fill:#347ab9;}.cls-71{fill:#0763ad;}.cls-72{fill:#1568af;}.cls-73{fill:#0760ac;}.cls-74{fill:#1063ad;}.cls-75{fill:#578ac1;}.cls-76{fill:#4884be;}.cls-77{fill:#1869b0;}</style></defs><path class="cls-1" d="M960,651.92c-36.14,0-72.28,0-108.42.08-3,0-3.58-.6-3.58-3.58q.16-108.92,0-217.84c0-3,.6-3.58,3.58-3.58q108.92.17,217.84,0c3,0,3.58.6,3.58,3.58q-.16,108.92,0,217.84c0,3-.6,3.59-3.58,3.58C1033,651.87,996.47,651.92,960,651.92Z" transform="translate(-848 -427)"/><path class="cls-2" d="M938,641.93c-19.08-3.43-35.29-12.51-49.18-25.71C849.65,579,844.39,521.4,876,477.4a66.2,66.2,0,0,1,4.94-5.55l.51.59c.51,2.5-1.35,4-2.56,5.68-24,33.72-27,69.53-10.11,107,5.08,11.27,13.07,20.6,22.22,29.1a99.78,99.78,0,0,0,45,24.38c1.61.39,3.25.81,4.24,2.36C940,642.52,939.21,642.66,938,641.93Z" transform="translate(-848 -427)"/><path class="cls-2" d="M922.87,442a85.17,85.17,0,0,1,42.68-7.37c41.29,3,71.47,23.3,90.24,60.31,1,1.91,2.12,3.79,2.16,6,.75,1.23.49,2-1,2.24-1.82-1.16-2.29-3.17-3.15-5-16.28-34-43.1-54.13-80.38-59.62a93.89,93.89,0,0,0-44.21,3.87,11.3,11.3,0,0,1-3.41.68A3.5,3.5,0,0,1,922.87,442Z" transform="translate(-848 -427)"/><path class="cls-3" d="M1057.21,503l.74-2c4.93,9.09,6.71,19.12,7.48,29.16,2.64,34.64-9.11,63.86-34.34,87.69A9.84,9.84,0,0,1,1029,619a2.15,2.15,0,0,1-.55-1.47c.57-2.63,2.69-4.12,4.4-5.88,21-21.65,30.78-47.65,29.62-77.67a82.43,82.43,0,0,0-4.52-24.39C1057.2,507.54,1055.77,505.4,1057.21,503Z" transform="translate(-848 -427)"/><path class="cls-4" d="M1028.84,617.72c.05.43.09.87.14,1.31-13.23,12.59-29.24,19.84-46.83,23.56-14.68,3.1-29.49,3.64-44.15-.66l2-.88c3.18-1.89,6.52-.42,9.65-.11,26.45,2.54,50.45-3.57,71.83-19.56C1023.68,619.74,1025.58,617.3,1028.84,617.72Z" transform="translate(-848 -427)"/><path class="cls-5" d="M922.87,442l3.07.1c.43,1.29-.61,1.62-1.38,2.13-2.14,1-4.31,1.85-6.54,2.62a65.33,65.33,0,0,0-19.39,11.51c-1.37,1.15-2.5,2.71-4.61,2.39a2.14,2.14,0,0,1-1.15-.8A80.57,80.57,0,0,1,922.87,442Z" transform="translate(-848 -427)"/><path class="cls-6" d="M880.93,471.85A37.76,37.76,0,0,1,892.87,460l.42.16c-1.79,6.29-5.94,10.25-12.09,12.22A1.18,1.18,0,0,1,880.93,471.85Z" transform="translate(-848 -427)"/><path class="cls-7" d="M881.2,472.34a44,44,0,0,0,12.09-12.22c1.65.14,2.56-.9,3.75-1.89,6.28-5.23,12.74-10.23,21-12.15,3.57,2.07,4.07,6.08,5.9,9.26.54,2.49,1.55,4.9,1.18,7.53a29.13,29.13,0,0,1-2.27,6.54c-2.95,5.5-8.35,8.49-12.76,12.49-15.94,14.42-24.91,32.06-25.75,53.79-.59,15,2.21,29.1,10,42.08,8.78,14.58,20.77,25.65,36.57,32a66.45,66.45,0,0,1,18.5,11.34c8.75,7.39,9.07,7.49,18.17.81,6.9-5.07,14.3-8.69,22.17-12.07,26.54-11.4,42.81-31.89,46.39-60.45,3.73-29.88-7.15-54.59-31.88-72.51-18.4-13.34-39-15.95-60.91-12.1-2.77.34-4-1.59-5.15-3.57a50.12,50.12,0,0,0-3.51-5.18c-1.07-1.39-1.91-3-3.13-4.26-1-1.11-2-2.15-3.12-3.18a15.77,15.77,0,0,0-4.11-3c-.7-.7-1.15-1.43-.22-2.28l1.84-1.15a94.13,94.13,0,0,1,33-5.73c19.27-.06,37.65,4.41,54.34,14.56,20.46,12.45,35.22,29.72,43.94,52.08,4.22,11.94,6.85,24.15,6.71,36.9-.26,23.82-7.85,45-22.31,63.89-3.86,5-8.66,9.14-12.77,13.91-9.08,6.6-18.07,13.41-28.66,17.52-16.12,6.25-32.74,9.15-50.08,7-3.35-.41-6.78-.3-10.09-1.18-14.29-3.19-27.77-8.39-39.52-17.24A118.58,118.58,0,0,1,875,598.13c-10.19-14.25-15.35-30.28-17.54-47.2a97.29,97.29,0,0,1,1.2-30.17C862,502.64,870.3,486.9,881.2,472.34Z" transform="translate(-848 -427)"/><path class="cls-1" d="M929,448.12a6.78,6.78,0,0,1,2.91,3c.31,1.91,1.64,3,3.16,3.93,2.32,1.87,3.48,4.56,5,7,.69,1.09,1.21,2.32,2.88,1.86,1.28,2.82.9,6,1.71,8.91.59,2.13-.74,3.69-3.12,4-2.35-.25-2.6-2.26-3.2-3.92A63,63,0,0,0,931,459.19c-.52,3.35,3.48,6.95-.85,10.08-1.15-1.25-2.22-2.17-3.92-.57-1.19,1.12-2.73,1.75-4.26.33l2-6c2.13-3,0-5.39-1.14-7.92l-4.8-9.06c1.65-1.78,4-2.11,6.11-2.83l1.1,1.41C925.61,446.75,926.65,448.15,929,448.12Z" transform="translate(-848 -427)"/><path class="cls-1" d="M940.9,476.08c2.77-.37,3.88-1.92,2.37-4.32-1.7-2.7-.89-5.23-.3-7.87,28.58-8.37,63.19,4.91,81.34,31.21,29.86,43.29,9.29,103-41,118.55-6.22,1.92-10.32,6.49-15.48,9.7-11.29,7-7.42,8-18.28-.63A89.34,89.34,0,0,0,929,610.35c-52.56-22.78-62.53-93.69-18.59-130.45,4.07-3.4,8.41-6.51,11.56-10.87a4.7,4.7,0,0,0,4.06-1.45c.84-.88,1.17-2.83,2.9-2.19s.86,2.62,1.26,4c1.91,2.61.57,5.13-.36,7.55-2.77,7.3-7.72,13.13-13,18.65A127.49,127.49,0,0,0,904,510.83c-5.12,7.31-4.67,14.55,0,21.86,3,4.7,7.36,8.07,11,11.49.65,1,1-.15.58.38-.08.1-.21,0-.39-.28-5.37-8.83-5-17.57.38-26.27,4-6.4,9.6-11.45,14.52-17,5.69-6.47,9.84-13.32,9.82-22.19A3.28,3.28,0,0,1,940.9,476.08Z" transform="translate(-848 -427)"/><path class="cls-8" d="M886,595.59c-1.58.27-2.19,2.58-5.36,1.78l10.64-8.8c-3,5.51,2.94,7.38,4.25,10.89-1.65,1.08-1.68-1.49-3.47-.8-.58,1.6.72,4.85-2.66,5.46a4.07,4.07,0,0,1-4.51-2.27c-1.3-2.16-.58-3.76,1.19-5.16a6.09,6.09,0,0,1,2-1.33C887.24,594.89,886.66,595.79,886,595.59Z" transform="translate(-848 -427)"/><path class="cls-9" d="M866.13,571.57a65.41,65.41,0,0,1,14.42-5.88c-1.87,3.64-5.65,2.88-7.36,5.13.33,1.41,1.68.87,2.45,1.4,2.2,1.53,3.11,3.55,2,6-.82,1.78-2.34,2.79-4.48,2-2.62-.94-4-3.08-3-5.45C871.41,572,870.5,571.27,866.13,571.57Z" transform="translate(-848 -427)"/><path class="cls-10" d="M877.54,552.49c-1.52,3.39-4.39,1.77-6,4.41,2.38-.6,4.3-1.2,6.43-.8-.4,2.72-6.57,1-3.54,6.32-1.44-4.53-3.81-3.43-6.22-2.74-.9.26-3.2,0-2.78-.34,2.63-2.25-1.81-2.42-.88-3.58.5-.63,1.73-.74,2.66-1C870.34,554.07,873.53,553.38,877.54,552.49Z" transform="translate(-848 -427)"/><path class="cls-11" d="M1033.64,593.83c-1.46-2.2-4.05-2.79-4.06-5.72l10.06,7.83h-12l6.23,5.77c-4.39-.73-6.75-4.07-10.4-6.4C1027.07,593.44,1030.36,595,1033.64,593.83Z" transform="translate(-848 -427)"/><path class="cls-12" d="M931,632.12c-1.46-.7-2.3-1.71-1.83-3.45.29-1.09,4.88-1.4.33-3.67-1.41-.7,2.47.88,2.67-1.08A2.68,2.68,0,0,1,934,623a39.83,39.83,0,0,1,4.74.47,1.9,1.9,0,0,1,1.31,1.45c0,.71-2.21.75-.57,1.9a6.3,6.3,0,0,0,1.31.53c-4.09.2-.47,5-3.45,5.83a1.28,1.28,0,0,1-1.66-.7c-.64-2.19-1.77-2.86-3.64-1.15A3.81,3.81,0,0,1,931,632.12Z" transform="translate(-848 -427)"/><path class="cls-7" d="M1004,624.92a6.58,6.58,0,0,1-4.15,1c-4.48-4.07-4.83-6-1.83-10l-.11.07c1.93-1.57,3.69-1.67,4.46,1S1007.54,621.46,1004,624.92Z" transform="translate(-848 -427)"/><path class="cls-13" d="M1037.27,506.54c1.33-3.7,4.21-3.66,5.19-6.16h-6.31c-.37-2.8,2.55-3.55,2.82-5.91l-6.08,1.77c2.56-2.66,2.93-2.82,11.23-5.13l-5.88,7.78H1047l.35.89Z" transform="translate(-848 -427)"/><path class="cls-8" d="M886.19,588.16c-1.93-1.1-4-6.15-4.45.73-1.53-1.86-1.62-5.84-3.92-5-4.87,1.86,2.15,4.78-.65,8,.36-3.64-5.27-5.24-1.86-9,2.33-2.6,3-2.25,6.52,1.45-.73-3.57-1.19-6.73,4.15-6.32C881.05,581.6,885,584.53,886.19,588.16Z" transform="translate(-848 -427)"/><path class="cls-14" d="M878.19,488.13c4.32-4.81,6.81,1.45,10.2,2.33,2.39.62,1.79,2.35-4,9.47,2.51-4.48-3.23-4.1-3.87-7.05,2.2-.67,3.19,1.07,4.58,1.63.88.35,1.61.49,2-.55.19-.54,1.09-1.28.33-1.67C884.45,490.79,882.29,487.17,878.19,488.13Z" transform="translate(-848 -427)"/><path class="cls-15" d="M1021.94,480.08c1.92-.33,2.86-2.1,4.4-3,1.72-.95,2.58-4.15,5.06-2.78a6.56,6.56,0,0,1,3.49,5.64c0,2.76-2,4.53-4.21,5.61-1.45.71-3.39,1.58-4.73-.55,1.28-1.54,3.55-1.7,4.74-3.37.69-1,1.23-2.13.21-3.08s-1.77,0-2.62.49c-2.5,1.38-1.89,3.88-2.24,6-2.59-.73-4-2.36-4-5.12Z" transform="translate(-848 -427)"/><path class="cls-15" d="M900.16,474c-1.85-.07-3.74,2-5.51,0-.95-1.05-2.58-2.62-2.31-3.42a6.79,6.79,0,0,1,5.58-4.57c3.43-.21,4.46,2,5,4.84C902.48,472.33,902.27,474,900.16,474Z" transform="translate(-848 -427)"/><path class="cls-15" d="M904.94,618.13c-.73.06-1.85,1.1-2.09.07-.31-1.33-.58-3.61.7-4a4.92,4.92,0,0,0,3-3c2.13-4.6,4.48-4,8.13-1.39,3.29,2.41,2.66,3.87.2,5.93-2.33-1.24,1.15-3-.91-4.68-3.25-2.62-4.16-2.27-7,4C907.46,616.84,906.41,617.63,904.94,618.13Z" transform="translate(-848 -427)"/><path class="cls-16" d="M990.92,451.89c1.23-.56.65-2.65,2.38-2.85,1.62,1.25-1.25,2.64.14,3.87,1.31.44,2.06-.77,3.1-1.11s1.71-1.09,3.53.08c-8,1.15-5,6.36-4,10.88-3.7-1.23-2.37-4.62-4.09-6.48-1.32,0-1,1.4-1.55,2s-.55,2.22-1.89,1.18c-.31-.25.19-1.54.31-2.34C988.59,455,988.88,453.11,990.92,451.89Z" transform="translate(-848 -427)"/><path class="cls-17" d="M916.14,466.4a16.58,16.58,0,0,1-2.35,1.79c-1.23.65-2.08,2.25-3.84,1.68.95-2.66-3.06-4.35-1.69-6.46.65-1,3.21-3.14,5.46-1C915.52,463.15,917.4,463.82,916.14,466.4Z" transform="translate(-848 -427)"/><path class="cls-18" d="M1022,480c-1.25.07-2.51.18-1.67-1.76.63-1.46,1.75-2.82-.13-4.36s-3,.44-4.4.8a19.11,19.11,0,0,1-2.9,0l12.7-7c.08,4.93-3.42,8.21-3.68,12.4Z" transform="translate(-848 -427)"/><path class="cls-19" d="M939.54,444.79c2.41,1.64.08,5.38,4.05,4.94,2.92-.32,2.84-2.31,3-4.55A22.17,22.17,0,0,1,949,455.66c-2.45-1-.81-5.82-5.06-4.57-3.83,1.13-.23,4.14-2.2,6A27.69,27.69,0,0,1,939.54,444.79Z" transform="translate(-848 -427)"/><path class="cls-20" d="M878.07,501c1.41.14,3.48-.42,3.7,1.48a38.3,38.3,0,0,1-.3,7.85c0,.29-1.37.87-1.63.67-1.9-1.43-5.4-2.1-2.86-5.87.77-1.14.78-2.79,1.14-4.21Z" transform="translate(-848 -427)"/><path class="cls-21" d="M1016.85,616.9c-.55,1.37-1.17,2.1-2.3.41s-2.4-3.57-3.68-5.3a2.63,2.63,0,0,0-3.94-.58,2.56,2.56,0,0,0-.67,3.57c1.24,2.27,2.68,4.43,4,6.63l-1,.72c-1.61-2.43-3.37-4.77-4.78-7.31-1.25-2.25.38-3.77,2-5,1.81-1.4,3.68-1.4,5.33.35,1.91,2,2.7,4.92,5.07,6.59Z" transform="translate(-848 -427)"/><path class="cls-22" d="M958.73,454.85c-1.71-2.94-3.48-5.31-8-2.51l3-10.25A34.51,34.51,0,0,1,958.73,454.85Z" transform="translate(-848 -427)"/><path class="cls-23" d="M971.24,456a50.85,50.85,0,0,1,2.19-12.25c2,1.65-.17,3.47.93,4.69,1.7,0,2.23-2.43,4.82-1.93-5.51,3.41-1,6.67.07,10.63-3.61-.79-3.13-4.46-5.37-5.63C972.24,452.34,973.84,454.75,971.24,456Z" transform="translate(-848 -427)"/><path class="cls-15" d="M1035.51,588.84c-3-.81-5-2-3.38-5.24,1.54-3,3.94-4.44,7.38-3.29,3.94,1.31,5.27,4.15,3.71,8.56a6.29,6.29,0,0,0-4.89-6.75,4,4,0,0,0-4.47,1.18C1031.32,586,1035.91,586.66,1035.51,588.84Z" transform="translate(-848 -427)"/><path class="cls-11" d="M1009,465c-1.57.81-.32,2.91-2.2,4.09-.49-3,.89-7.37-5.43-6.68l8.24-6.54c.95,3.62-1.26,6.33-.71,9.22Z" transform="translate(-848 -427)"/><path class="cls-16" d="M1049.22,577.44c-2.56-1.54,1.22-3.71-1.65-4.89-2.66-1.1-1.8,2.35-3.69,2.28-1.26-1.05,1.35-3.28-1.32-4.31-3-1.16-2,2.63-4.23,2.52-.15-2,.68-4.84,2-4.62a25.31,25.31,0,0,1,10,3.86C1051.93,573.45,1049.41,575.48,1049.22,577.44Z" transform="translate(-848 -427)"/><path class="cls-16" d="M987.38,632.43c0-3.17,3.5-1.54,3.18-4-.37-2.77-2.94-1.07-4.36-1.69.46-1.94,3.8-1.52,2.59-4.29s-3.45.66-4.74-1.31c1.37-1.54,4.45-2.45,4.93-1.58a26.64,26.64,0,0,1,3.45,10.18C992.61,631.69,989.41,631.32,987.38,632.43Z" transform="translate(-848 -427)"/><path class="cls-24" d="M875.87,530c.31,2.5-.29,4.87-1,7.74-1.75-2.74-4.69-1.07-6.46-2.5-.6-1.36,6.49-2.37-.36-3.28,1.74-2.62,4.48.26,5.88-1.87A1.32,1.32,0,0,1,875.87,530Z" transform="translate(-848 -427)"/><path class="cls-16" d="M904.94,618.13c.69-1,1.37-2,2-3.08,1.82-.35,3.84-1.84,5.11.9a12.2,12.2,0,0,0-1.36,1.33,13.14,13.14,0,0,0,1.27-1.42c3.31,1.66,2,3.36.47,5.67-2,3-3.69.4-5.23,0C906.25,621.24,905.7,619.31,904.94,618.13Z" transform="translate(-848 -427)"/><path class="cls-25" d="M890,481.91c-.74.29-1.5.53-2.22.86a3.49,3.49,0,0,1-4.72-1.31c-1.28-1.87.94-2.4,1.55-3.53a11.1,11.1,0,0,1,1.69-1.9c1.54,2.14-2.31,2.74-.9,4.78,2.61-1.08,3.47-4.12,5.87-5.54,1.85,2.46-2,3.54-1.2,5.62.33.25.43.49.3.71S890.16,481.91,890,481.91Z" transform="translate(-848 -427)"/><path class="cls-26" d="M1050.5,545.64c.61-4.95-3.3-3.4-5.33-4.67,7.45-3.12,12.11-1.18,11.48,4.68-2.62.1-.2-4.17-3.31-3.75C1051.27,542.19,1052.49,544.2,1050.5,545.64Z" transform="translate(-848 -427)"/><path class="cls-27" d="M1041.22,487.61c-2.32.09-2-3.34-4.47-2s.55,2.8-.22,4.31c-1.7.48-2.55-3.41-4.88-1-1.87,1.94,1.55,2.76-.1,5.09-1-1.67-2.78-4.24-2.53-4.45,2.71-2.36,5.52-4.9,8.78-6.23C1039.5,482.64,1040.47,485.47,1041.22,487.61Z" transform="translate(-848 -427)"/><path class="cls-28" d="M918.09,623c-1.8.1-.89,3.39-3.92,2.67,1.66-3.63,2.82-7.46,5-10.56,2.35-3.32,4.45.84,6.77,1.15.06.87-.51,1.21-1.21,1.43C920.44,616.8,920.45,621.36,918.09,623Z" transform="translate(-848 -427)"/><path class="cls-29" d="M968.94,454.89c-3.19-1.46-3.72-5.2-6.69-7.53l-.43,4.61c-2.45-.89-1-2.72-1-4.2v-4.38l.93-.37a79.25,79.25,0,0,0,5.14,7.1c1.61,1.83.83-.64,1.3-1C970.53,450.8,969.51,452.87,968.94,454.89Z" transform="translate(-848 -427)"/><path class="cls-30" d="M918.09,623c1.63-7.11,2.21-7.61,6.94-6,2.3,1.11.83,3.2,1.26,4.8l-1.53.3a2.37,2.37,0,0,1-1.84.53c-1.7-.73-3.22,1.24-4.93.35Z" transform="translate(-848 -427)"/><path class="cls-31" d="M897.31,605.62c.84-.33,2.05-.24,1.14-1.87-1.68-3-1.58-3.08,2-5.28-.75,2.47.69,10.24,2.61,12.39-3.26-.56-4.49-3-6.29-4.62C896.65,605.77,896.85,605.58,897.31,605.62Z" transform="translate(-848 -427)"/><path class="cls-32" d="M1053.91,517.08c2.71,3.51,1.79,6.58-1.68,8.6-3.64,2.12-6.92,1.31-9-2.68a1.78,1.78,0,0,1,1.24-.47c5.88,1.64,7.14,1,8.61-4.36A2.76,2.76,0,0,1,1053.91,517.08Z" transform="translate(-848 -427)"/><path class="cls-20" d="M1046.83,562.93c-.63-2.33-3.67-1-5.22-4.43,4.43,1.27,8,2.1,11.43,3.36,1.73.64,1,2.08.07,3.17a1.17,1.17,0,0,1-1.16.34,14.31,14.31,0,0,0-4.14-1.61A2.26,2.26,0,0,1,1046.83,562.93Z" transform="translate(-848 -427)"/><path class="cls-33" d="M1016.92,617c2.16-2.29,2.17-4.36-.26-6.59-1.44-1.3-2.46-3-4.45-5.59,5.34,1.73,5.75,7.38,10.48,8.11-1.84,2-3.34,3.73-5.84,4Z" transform="translate(-848 -427)"/><path class="cls-28" d="M916.14,466.4c.18-1.92-1.86-2.49-2.42-4-1.5-2.27-2.05-5.83-6.68-4.17,3.31-3.68,5.23-2.56,7,.69a28.26,28.26,0,0,0,3.33,4.86C918.92,465.73,917.22,465.87,916.14,466.4Z" transform="translate(-848 -427)"/><path class="cls-10" d="M1046.83,562.93l1.21.08c.94,1.45,2.49,1.67,4,2l1.08,0c-.36,2.57-2.89,4.11-4,2.54-2.71-3.74-5.39-1.35-9.08-.63C1041.77,563.46,1044.61,563.7,1046.83,562.93Z" transform="translate(-848 -427)"/><path class="cls-18" d="M987,457.92c-5.27,1.36-7.76-.86-6.44-5.82.5-1.9,1.17-3.76,1.82-5.62.08-.21.5-.31,1.12-.66.45,2.42-.8,4.33-1.26,6.36-.94,4.13.06,5.06,4.6,4.36A.85.85,0,0,1,987,457.92Z" transform="translate(-848 -427)"/><path class="cls-15" d="M1044.23,522.92l-1,.08c-.93-3.07-.15-5.52,2.79-7s5.6-1.83,7.88,1.06l-.12,1.25C1049.69,518,1046.23,518.92,1044.23,522.92Z" transform="translate(-848 -427)"/><path class="cls-16" d="M1044.65,549.72c2.23-4.23,5.85-3.49,8.95-1.83,3.37,1.79,3.46,4.89,1.3,8a3,3,0,0,1-.81-1.1c-.5-5.86-4.8-4.39-8.37-4.33A1.34,1.34,0,0,1,1044.65,549.72Z" transform="translate(-848 -427)"/><path class="cls-12" d="M876,513.46c-2.58,4.09.65,4.88,3.18,6.41-3.27,0-5.68.93-7.2,3.86l2.54-10.45Z" transform="translate(-848 -427)"/><path class="cls-16" d="M875.87,530l-1.94.09c-3,1.21-6-2.71-9.07-.19-2.13-.38-1.22-1.58-.71-2.67,3.53.13,7.06.28,10.6.38C876.76,527.65,875.83,529,875.87,530Z" transform="translate(-848 -427)"/><path class="cls-32" d="M1046.6,582l-10.44-5.2.67-1.34a36.57,36.57,0,0,1,10.49,5.37Z" transform="translate(-848 -427)"/><path class="cls-8" d="M867.27,519c-.28-2.23,1.8-4.46-.66-6.74,7,.49,7,.55,4.43,6.73a.87.87,0,0,1-1.16,0c-.22-.33.17-.79-.21-1.1a1.92,1.92,0,0,1-1.2,1.46A1.47,1.47,0,0,1,867.27,519Z" transform="translate(-848 -427)"/><path class="cls-9" d="M1054.86,554.8l0,1.08c-2.35,2.93-5.28,2.91-8.2,1.23s-3.76-4.26-2-7.39a5.25,5.25,0,0,0,.62.53C1046.72,555.44,1051.05,554.57,1054.86,554.8Z" transform="translate(-848 -427)"/><path class="cls-34" d="M1004,624.92c.92-4.45-2.42-9.36-6.09-8.94,1.82-2.74,3.5-3.13,5.13.2.94,1.91,2,3.77,3.09,5.59C1007.74,624.44,1006.24,624.9,1004,624.92Z" transform="translate(-848 -427)"/><path class="cls-35" d="M1017.16,604.74c10.16,1.67,10.16,1.67,10.47,4C1025.6,603.28,1019.81,610,1017.16,604.74Z" transform="translate(-848 -427)"/><path class="cls-18" d="M900.16,474l1.92-3c.54-.54.82-1.59,1.94-.95,2.29.13,3.26,1.64,4.45,4.93-3.71-3.6-5.6-1.52-7.58.43-.47.46-1.08,1.54-1.82.49C898.89,475.65,899.77,474.65,900.16,474Z" transform="translate(-848 -427)"/><path class="cls-27" d="M904,470.06l-1.94,1c-.35-2.54-2.24-3.79-4.16-5,1-4.92,3.35-.22,5-.75C901.69,467.22,904.91,468.16,904,470.06Z" transform="translate(-848 -427)"/><path class="cls-36" d="M987,457.92c-.05-.46-.11-.92-.16-1.38,1-2.88,1.91-5.76,2.9-8.75,2.34,1.24-.39,3.1,1.23,4.1-1.11,1.58-.24,3.94-2.06,5.25Z" transform="translate(-848 -427)"/><path class="cls-37" d="M991.74,618.19c2.3,3.34,4.08,6.78,4.38,10.77A18,18,0,0,1,991.74,618.19Z" transform="translate(-848 -427)"/><path class="cls-14" d="M870.08,549c-.21,3.8-3.29,2.68-5,2.32a3,3,0,0,1-2-4.3c.62-1.11.62-2.92,2.69-2.4,1.27,1.1.3,4,3.12,3.86A2.14,2.14,0,0,1,870.08,549Z" transform="translate(-848 -427)"/><path class="cls-11" d="M1048.25,507.85c1.18.14,2.5-.18,4.17,1.36-4.74,0-8.79-.88-13.29,1.25,1.52-3.12,4.53-2.57,5.84-4.42C1046.71,505.47,1046.69,508.1,1048.25,507.85Z" transform="translate(-848 -427)"/><path class="cls-38" d="M872.22,540.06c1.21.37,2.67-.5,4,1.16-5.13,1.06-2.28,5.26-3.38,8-.05.13-.27.18-.42.26L872,548.2a6,6,0,0,1-1.77-2.62C869.76,543.33,869.66,541.21,872.22,540.06Z" transform="translate(-848 -427)"/><path class="cls-39" d="M1008.86,465.05c2.52-1.35,3.86-5.2,8.36-3.38-5,1.09-6.85,4.49-8.26,8.69V465Z" transform="translate(-848 -427)"/><path class="cls-11" d="M998,615.91c-2.83,4-.09,6.89,1.83,10-3.51,0-4.27-2.76-4.76-5.23C994.7,618.59,995.15,616.31,998,615.91Z" transform="translate(-848 -427)"/><path class="cls-40" d="M895,486.52c-2.94.05-4.45-1.21-4-4.31,1.24-1.5,2.72-1.88,4.24-.56C897.19,483.3,895.6,484.92,895,486.52Z" transform="translate(-848 -427)"/><path class="cls-41" d="M978.37,623.19c-.49,4.87,8.27,2.37,6.3,9.35C984,627.71,976.14,629.45,978.37,623.19Z" transform="translate(-848 -427)"/><path class="cls-42" d="M1048.84,529c7.68-2.08,8.78-1.39,7.29,4.66-2.09-.49-.31-3.32-2.32-3.83C1052.25,528.92,1050.31,530.37,1048.84,529Z" transform="translate(-848 -427)"/><path class="cls-43" d="M871.37,546.07l.62,2.13-1.91.79a5.35,5.35,0,0,1-.8,0,34.84,34.84,0,0,1-2.85-3.88c-1.73-.5-2.26,1.13-3.29,1.87-.66-3.46,1.86-3.06,3.91-3.23C869.77,542.13,870.2,544.8,871.37,546.07Z" transform="translate(-848 -427)"/><path class="cls-44" d="M868.59,504.59c2.55-.56,4.59-.11,6.41-1.47-1.39,2.31-3.64,4.12-2.21,7.12Z" transform="translate(-848 -427)"/><path class="cls-45" d="M867.05,543.21c-1.37-.75-3.2.72-4.79-1.1,1.88-1.46,3.34-3.23,5.87-1.42.83-.17,2-.22,2,.74C870,543.13,868.4,543.16,867.05,543.21Z" transform="translate(-848 -427)"/><path class="cls-10" d="M875.09,564.66c-2.44.56-4.92,1-7.31,1.72-2.11.64-1.8-1-1.67-1.82.46-3.15,1,.29,1.72.07,2.32-.69,4.73-1.06,7.1-1.55Z" transform="translate(-848 -427)"/><path class="cls-46" d="M878.12,500.87c-2.19.58-4.59,3.35-6.32-.7-.24-.56-1-1-.5-1.64.58-.8,1.45-.55,2.18-.18,1.56.82,3.52.93,4.59,2.6Z" transform="translate(-848 -427)"/><path class="cls-42" d="M968.94,454.89c-.34-1.9.69-4-.76-5.73-.09-1.9-.66-3.87,1.33-5.56C969.76,447.37,970.59,451.13,968.94,454.89Z" transform="translate(-848 -427)"/><path class="cls-47" d="M867.27,519H868c.78.82,1.57.18,2.36,0H871c-.14,1.8.87,4.43-2.61,3.92-1.11-.16-2.67-.44-3.12-1.2C864.3,520,867.32,520.49,867.27,519Z" transform="translate(-848 -427)"/><path class="cls-48" d="M895,486.52c.52-3.14,1-6.27-4-4.31l-1-.3.07-1c2.14-.84,4.49-2.05,6.3.17S896.86,485,895,486.52Z" transform="translate(-848 -427)"/><path class="cls-1" d="M929,448.12a3,3,0,0,1-4.27.38c-1.48-1.21.12-2.56.47-3.84A9,9,0,0,1,929,448.12Z" transform="translate(-848 -427)"/><path class="cls-49" d="M896.75,606.24a10,10,0,0,0-1.43-.13c-1.68.11-1.53,4.29-3.62,2.23-1.48-1.47,1.34-2.92,2.32-4.1,1.75-2.08,2.24.71,3.29,1.38A3.31,3.31,0,0,1,896.75,606.24Z" transform="translate(-848 -427)"/><path class="cls-50" d="M864.15,527.21c0,.95-.19,2,.71,2.67.4,2.29.19,4.48-1.44,7.68C863,533.24,862.53,530.17,864.15,527.21Z" transform="translate(-848 -427)"/><path class="cls-51" d="M918,622.92c1.68-.54,2.87-3.08,5.12-1.22a1.11,1.11,0,0,1,.28,1.17c-1.39,1.25-2.72,2.55-2.93,4.56l-.43.47C917.08,627.17,918.15,624.79,918,622.92Z" transform="translate(-848 -427)"/><path class="cls-52" d="M923,622.72c0-.34.05-.68.07-1l1.65.34c1,1.88,2.07,3.79.1,5.69-1.51,1.46-3.15,2.1-4.83.17l0,.09A7.07,7.07,0,0,0,923,622.72Z" transform="translate(-848 -427)"/><path class="cls-53" d="M1048.25,507.85c-1.78.64-2.2-1.19-3.28-1.81a11,11,0,0,1,4.16-4.11C1051.52,504.4,1045,505.35,1048.25,507.85Z" transform="translate(-848 -427)"/><path class="cls-1" d="M922.79,455.14c3.2,3.06,3.59,5.8,1.14,7.92Z" transform="translate(-848 -427)"/><path class="cls-54" d="M867.05,543.21l2.82-2-1.74-.5c1.22-1.11,2.7-.61,4.09-.63-1.94,1.77-.54,4-.85,6-1.62-.43-2.16-2.88-4.32-2.29A5.42,5.42,0,0,0,867.05,543.21Z" transform="translate(-848 -427)"/><path class="cls-55" d="M886,595.59c2.42-3.19,4-2.54,5.12,1.1h-5Z" transform="translate(-848 -427)"/><path class="cls-56" d="M1048.84,529c1.62.49,3.48-.45,5,.83l-10.21.87C1045.81,528.52,1047.46,529.25,1048.84,529Z" transform="translate(-848 -427)"/><path class="cls-57" d="M926.29,621.74c-2.63-1,.92-3.66-1.26-4.8l.92-.73C930.34,617.79,927,619.84,926.29,621.74Z" transform="translate(-848 -427)"/><path class="cls-58" d="M933.89,624l-1.72,0c-1.25-4-.51-4.8,3.83-3.95-.06.21-.11.42-.16.64A34.82,34.82,0,0,1,933.89,624Z" transform="translate(-848 -427)"/><path class="cls-59" d="M940,624.94l-1-1c-1.17-1.23-3.4-1.66-3-4.05l0,.08C940.84,620.73,941.31,621.3,940,624.94Z" transform="translate(-848 -427)"/><path class="cls-60" d="M960.81,447.77c.52,1.36-.28,3,1,4.2,0,1,.79,2.61-.84,2.77s-.88-1.4-.87-2.22C960.11,450.92,959.81,449.24,960.81,447.77Z" transform="translate(-848 -427)"/><path class="cls-61" d="M894.91,609.18l3.85,4.83a8.59,8.59,0,0,1-4.89-3.78Z" transform="translate(-848 -427)"/><path class="cls-1" d="M935.07,455c-1.86-.66-5.14-.18-3.16-3.93A8.63,8.63,0,0,1,935.07,455Z" transform="translate(-848 -427)"/><path class="cls-62" d="M936.05,632l1.27,1.16c-2.43,1.55-4.38.28-6.32-1.08l.14-1.35A4.5,4.5,0,0,1,936.05,632Z" transform="translate(-848 -427)"/><path class="cls-63" d="M940.9,476.08c1.18,9.25-2.23,16.94-8.18,23.73-4.16,4.75-8.48,9.37-12.63,14.13-8.16,9.38-10.15,19.53-3.61,30.66a1.62,1.62,0,0,1,.07,2A50,50,0,0,1,902.05,532c-4-6.48-4.19-13.11-.44-19.84,3.27-5.9,7.93-10.66,12.44-15.54,4.86-5.25,9.79-10.44,13.11-16.88,1.69-3.26,3.22-6.58,3-10.4,1.63-4.62-.64-8.8-1.24-13.34C935,461.44,938.44,468.45,940.9,476.08Z" transform="translate(-848 -427)"/><path class="cls-7" d="M984.42,524.5c10.36,0,20.57,1.44,30.8,2.78,3.38.45,4.26,1.89,3.78,5.2q-8.37,57.79-57.56,89.15c-1.34.86-2.55,2.15-4.43.74-6.67-5-13.27-10.06-17.53-17.48-3.62-6.31-3.57-12.67-.14-19,2.71-5,6.52-9.2,10.39-13.35,4.86-5.23,9.86-10.36,13.72-16.45,5.36-8.45,6.59-17.34,2.54-26.58-1.37-3.14-.56-4.14,2.47-4.29Z" transform="translate(-848 -427)"/><path class="cls-64" d="M929,589.5a48.45,48.45,0,0,1-10-14.74c-3.6-8.68-2.7-16.86,2.43-24.64,3.59-5.45,8.23-10,12.59-14.79,10.68-11.73,16.19-20.6,5.12-38.94,10.83-3.09,21.83-3.57,32.92-3.66,15.18-.12,30.13,1.81,45.07,4.28,6.23,1,3.07,5.28,4.28,9a270.31,270.31,0,0,0-36.51-4.67c-12.09-.61-24.16-.33-36.6,2.27,2.19,2.68,4.24,5,6.07,7.47,5.68,7.66,6,15.53.77,23.6-4.54,7-10.7,12.68-16.17,18.93-4.28,4.89-8.16,10-10.39,16.25C926.23,576.39,927,582.85,929,589.5Z" transform="translate(-848 -427)"/><path class="cls-65" d="M978,513.07v3.48c0,1.15-.39,1.93-1.69,1.89s-1.26-.91-1.28-1.74c0-1.9,0-3.59-2.84-3.39-2.64.18-3,1.45-2.58,3.58.2,1.06,0,2-1.38,2.09s-1.41-1-1.5-2c-.19-2.31-.43-4.62-.54-6.94-.05-1.06-.51-2.47,1.14-2.86,1.86-.43,1.8,1,1.8,2.11,0,1.73.78,2.45,2.46,2.16,1.32-.24,3.2.42,3.21-2,0-1.05-.43-2.6,1.45-2.48,1.68.1,1.42,1.54,1.46,2.65s0,2.32,0,3.48Z" transform="translate(-848 -427)"/><path class="cls-66" d="M1012.82,521.93a28,28,0,0,1-3.94-1.19c-1.34-.61-3-1.87-2.08-3.27,1.06-1.55,2.13.12,3,1.1a3.62,3.62,0,0,0,3.14,1.2,2.35,2.35,0,0,0,1.64-.82c.55-.94-.2-1.48-1-1.83-1.06-.45-2.16-.83-3.21-1.31-1.76-.8-3.33-1.88-2.6-4.13.84-2.59,3.11-2.86,5.3-2.42s4.38.9,4.94,3.48c.25,1.14-.67,1.46-1.52,1s-1.43-1.34-2.25-1.86c-1.16-.74-2.81-1.35-3.52.06-1,1.89,1.22,1.74,2.2,2.29.57.32,1.21.51,1.81.8,1.65.81,3.57,1.59,3.06,3.89S1015.26,521.73,1012.82,521.93Z" transform="translate(-848 -427)"/><path class="cls-67" d="M986.75,509.91c-1.32,2.81-2.36,5-3.35,7.15a1.75,1.75,0,0,1-2.38,1.15c-1.67-.66-.32-1.65,0-2.35,1-2.3,2.09-4.52,3.12-6.79.57-1.27,1.17-2.28,2.9-2.14,1.48.12,1.87,1,2.28,2.15.87,2.51,1.94,4.94,2.8,7.45.24.71,1.52,1.82-.27,2.31a1.85,1.85,0,0,1-2.33-1.34C988.63,515.19,987.82,512.87,986.75,509.91Z" transform="translate(-848 -427)"/><path class="cls-68" d="M1004.55,514.55c-3.08.68-7.38-1-7.17,4.14a2.51,2.51,0,0,1-1.3.35c-1.12,0-1.24-.92-1.15-1.77.3-2.78.64-5.56,1-8.34a1.28,1.28,0,0,1,1.71-1.22c2.65.48,5.5-.14,8.65,1.35-1.9,1.71-3.55.84-5,1-1.07.11-2.62-.5-2.76,1.19s1.45,1.35,2.51,1.6S1003.4,512.54,1004.55,514.55Z" transform="translate(-848 -427)"/><path class="cls-67" d="M890.11,600.34c-.11,1.49-.87,2.31-2.17,2.2a2,2,0,0,1-1.94-2.29c.11-1.26.8-2.21,2.15-2.12A2.13,2.13,0,0,1,890.11,600.34Z" transform="translate(-848 -427)"/><path class="cls-69" d="M876.2,577.06a2,2,0,0,1-2.37,1.53,2.42,2.42,0,0,1-2.28-2.73,2.1,2.1,0,0,1,2.29-2.06C875.45,573.74,876.32,574.47,876.2,577.06Z" transform="translate(-848 -427)"/><path class="cls-70" d="M936,619.89c1,1.36,3.81,1.36,3,4.05-1.71,1.31-3.42.22-5.13,0C932.27,621.38,934.21,620.67,936,619.89Z" transform="translate(-848 -427)"/><path class="cls-71" d="M936.05,632c-1.76.06-3.49,0-4.91-1.27,0-3.19,2.26-2.26,3.82-1.78C936.23,629.38,938,630.21,936.05,632Z" transform="translate(-848 -427)"/><path class="cls-72" d="M1026,485.11c-2.12-3.08.57-8.57,4.4-9.05,1-.13,1.48.54,1.94,1.19a3.75,3.75,0,0,1,.21,4.2c-1.46,2.52-3.94,3.29-6.64,3.59Z" transform="translate(-848 -427)"/><path class="cls-73" d="M898.4,473c-2.11,0-3.09-.51-3.2-1.87s.76-2,2.08-2.1c1.52-.09,1.94.82,2,2.12C899.25,472.32,898.84,473.06,898.4,473Z" transform="translate(-848 -427)"/><path class="cls-74" d="M912,615.86c-.25,1.46,1.16,3.54-1.37,4.12-1.22.27-2.48-.22-2.5-1.7,0-2.93,2.28-2.15,4-2.33Z" transform="translate(-848 -427)"/><path class="cls-72" d="M1044.23,522.92c.31-5.53,4-7.28,9.56-4.59.37,2.19.53,4.29-2,5.43C1049.1,525,1046.49,525.55,1044.23,522.92Z" transform="translate(-848 -427)"/><path class="cls-73" d="M1052,565c-2.92,2.53-3.43.22-4-2C1049.62,563.17,1051.9,561.92,1052,565Z" transform="translate(-848 -427)"/><path class="cls-7" d="M1054.86,554.8c-6.27,2.88-9.91,1.15-9.59-4.55C1051.43,547.22,1054.85,548.85,1054.86,554.8Z" transform="translate(-848 -427)"/><path class="cls-75" d="M870.4,519c-.31.83-.25,2.1-1.58,1.91-1.08-.15-.63-1.23-.78-1.92,1.51-1.06.06-3.7,2.33-4.41C872.08,516.09,870.32,517.57,870.4,519Z" transform="translate(-848 -427)"/><path class="cls-76" d="M866.43,545.14c2.5.15,3.78,1.21,2.85,3.88-1.26,1.25-2.5,1.3-3.66-.12C864.33,547.32,865.63,546.28,866.43,545.14Z" transform="translate(-848 -427)"/><path class="cls-77" d="M923,622.72c2.58,3.84.2,4.81-3,5.27C919.81,625.54,918.68,622.54,923,622.72Z" transform="translate(-848 -427)"/><path class="cls-1" d="M971.18,534.08c11.51-1.71,22.26-.75,33,.33,5.08.51,2.76,4,2.35,6.21-4.24,23-14.81,42.83-31.08,59.64-5.79,6-11.91,11.61-18.17,17.11-1.91,1.68-2.79,1.53-3.94-.75-3.93-7.85-4.32-15.55.35-23.26a72.47,72.47,0,0,1,8.62-11c3-3.33,6.16-6.56,9-10.06,9.3-11.64,9.92-21.75,2.3-34.44C972.92,536.77,972.19,535.68,971.18,534.08Z" transform="translate(-848 -427)"/></svg>