<svg id="레이어_1" data-name="레이어 1" xmlns="http://www.w3.org/2000/svg" viewBox="0 0 1513 1513"><defs><style>.cls-1{fill:#553c7b;}.cls-2{fill:#fefefe;}.cls-3{fill:#a99cbc;}.cls-4{fill:#563d7b;}.cls-5{fill:#563d7c;}</style></defs><path class="cls-1" d="M204.1,1062.93V16.07c1-8,.83-16.17,1.68-24.22,1.93-18.4,7.83-35.73,14.7-52.74,11.35-28.08,27.66-53,48-75.41a255.42,255.42,0,0,1,73.86-56.25A234.08,234.08,0,0,1,404-214c9.31-1.82,18.82-1.75,28.25-2.39,1.62-.11,3.33.51,4.86-.48H1483.93c7.84.82,15.71,1.09,23.55,1.73,15.94,1.3,30.91,6.45,45.77,11.83a242,242,0,0,1,72.3,41.72A257.24,257.24,0,0,1,1687-88.15a249.86,249.86,0,0,1,26.28,69.81c2.75,12.91,2.78,26.05,3.13,39.18V1057.09c1,39.92-11,76.33-30.17,110.79a246.21,246.21,0,0,1-43.54,56.9c-36.07,35.09-78.7,58.26-128.22,68.15-11.93,2.39-24.14,2.1-36.27,2.47H442c-32.26.8-62.49-7.25-91.65-20.6a254.58,254.58,0,0,1-83.06-61.15c-30.53-33.61-50.5-72.89-60.16-117.28-2-9.2-1.78-18.71-2.5-28.08C204.45,1066.5,205.12,1064.64,204.1,1062.93Z" transform="translate(-204 217)"/><path class="cls-2" d="M1480,1295c59.28-4,111-26,154.65-66.17,45.16-41.53,71.65-93.09,79.92-153.92.72-5.26,1-10.6,1.42-15.9.23-.75.53-.77.89-.09q0,116.49.1,233c0,3.43-.67,4.11-4.1,4.1q-116.48-.2-233-.1C1479.25,1295.54,1479.27,1295.24,1480,1295Z" transform="translate(-204 217)"/><path class="cls-2" d="M1716,19c-3.79-56.15-24-105.69-60.77-148.18-41.23-47.67-93.4-76-155.71-85.52-5.18-.79-10.5-.53-15.55-2.22q114.49,0,229-.1c3.43,0,4.11.67,4.1,4.1q-.2,116-.1,232C1716.55,19.75,1716.24,19.74,1716,19Z" transform="translate(-204 217)"/><path class="cls-2" d="M204.1,1062.93c1.26,8.13,2.32,16.3,3.83,24.38,12.21,65.76,45.31,118.69,98.73,158.71,39.47,29.57,84.1,45.71,133.36,48.94.72.28.73.59.05.94q-116,0-232,.1c-3.43,0-4.1-.67-4.1-4.1Q204.2,1177.42,204.1,1062.93Z" transform="translate(-204 217)"/><path class="cls-2" d="M437.07-216.9c-8.49,1.29-17,2.38-25.47,3.91q-72.39,13.1-126.34,63.14c-42,39-67.88,86.93-77.9,143.37C206,1,205.17,8.55,204.1,16.07q0-114.36-.1-228.73c0-3.6.74-4.35,4.34-4.34Q322.7-216.8,437.07-216.9Z" transform="translate(-204 217)"/><path class="cls-3" d="M1716,19a1.33,1.33,0,0,0,.94.05V1058.93a6.71,6.71,0,0,0-.89.09c0-3.32-.1-6.65-.1-10q0-510,0-1020.06C1715.9,25.67,1715.94,22.34,1716,19Z" transform="translate(-204 217)"/><path class="cls-3" d="M440.07,1295.9a1,1,0,0,0-.05-.94c3.49,0,7-.06,10.48-.06H1469.55c3.49,0,7,.06,10.47.1a1.51,1.51,0,0,0-.09.89Z" transform="translate(-204 217)"/><path class="cls-2" d="M614.87,552.54q0-217.45-.12-434.9c0-5.17,1.39-6.21,6.32-6.21q212.45.21,424.9.19c46.59.07,92.27,6.12,135.65,24.36,36.09,15.19,67.56,36.53,90.19,69.28,16.66,24.12,26.11,51.08,30.58,79.88,4.74,30.51,5.15,61-.89,91.4-10.7,53.81-40.72,94.22-86.52,123.49a254.86,254.86,0,0,1-30.74,16.48c-1.53.71-4.27.64-4.15,2.87.15,2.77,3.19,1.92,4.84,2.31,29.49,6.95,56.93,18.37,81.08,37,34,26.16,55.27,60.92,67.18,101.51,15.11,51.5,16.94,103.62,3.49,155.78-15.73,61-53.46,104.64-108.53,133.88-37.54,19.93-77.66,32-119.62,38.17-31.38,4.65-62.91,6-94.59,6q-196.46-.19-392.91.06c-4.88,0-6.29-.95-6.29-6.13Q615,770.23,614.87,552.54Z" transform="translate(-204 217)"/><path class="cls-4" d="M918.75,867.79q-72,0-143.94.09c-4.06,0-5.37-.92-5.37-5.19q.18-132.69,0-265.38c0-4.19,1.19-5.24,5.31-5.24,90.63.12,181.25-.07,271.88.2,25.27.08,50.09,3.78,73.36,14.52,40.6,18.76,62.81,51.05,68.88,94.8,3.82,27.53,2.61,54.9-6.57,81.32-15.4,44.32-47.78,69.48-92.56,80a200,200,0,0,1-45.56,4.9Q981.46,867.84,918.75,867.79Z" transform="translate(-204 217)"/><path class="cls-5" d="M906.85,237.55c37.16,0,74.31-.07,111.47,0,21.71.06,43.27,1.62,64,8.56,22.56,7.53,42,19.35,53.83,41,7.48,13.62,11.36,28.36,13.22,43.66,2.69,22.12,2.95,44.23-2.9,66C1135.69,437,1108.21,461,1069.88,474a138.63,138.63,0,0,1-44.68,7q-125,.12-249.94.13c-4.36,0-5.85-.83-5.84-5.59q.24-116,0-231.94c0-4.68,1-6.17,6-6.14C819.21,237.64,863,237.55,906.85,237.55Z" transform="translate(-204 217)"/></svg>